
<?xml version="1.0" encoding="iso-8859-1"?>
<svg version="1.1" xmlns="http://www.w3.org/2000/svg" xmlns:xlink="http://www.w3.org/1999/xlink" x="0px" y="0px" viewBox="-133 134.46 15.874 16"
	 style="enable-background:new -133 134.46 15.874 16;" xml:space="preserve">
		<g>
			<path style="fill:#999999;" d="M-125.063,135.96c-3.59,0-6.5,2.91-6.5,6.5c0,3.59,2.91,6.5,6.5,6.5c3.59,0,6.5-2.91,6.5-6.5
				C-118.563,138.87-121.473,135.96-125.063,135.96z M-122.253,143.696h-2.756c-0.009,0-0.018-0.002-0.027-0.003
				c-0.009,0.001-0.018,0.003-0.027,0.003c-0.248,0-0.449-0.201-0.449-0.45v-4.589c0-0.248,0.201-0.45,0.449-0.45
				c0.248,0,0.45,0.201,0.45,0.45v4.14h2.36c0.248,0,0.45,0.201,0.45,0.449C-121.804,143.495-122.005,143.696-122.253,143.696z"/>
		</g>

</svg>