<svg xmlns="http://www.w3.org/2000/svg" xmlns:xlink="http://www.w3.org/1999/xlink" preserveAspectRatio="xMidYMid" width="12" height="13" viewBox="0 0 12 13">
  <defs>
    <style>
      .cls-1 {
        fill: #999;
        fill-rule: evenodd;
      }
    </style>
  </defs>
  <path d="M10.903,13.000 L6.000,13.000 L6.000,12.963 L1.097,12.963 C0.491,12.963 -0.000,12.470 -0.000,11.867 L-0.000,3.091 C-0.000,2.485 0.491,1.994 1.097,1.994 L1.519,1.994 L1.519,2.493 C1.519,3.042 1.973,3.490 2.531,3.490 C3.090,3.490 3.544,3.042 3.544,2.493 L3.544,1.994 L6.000,1.994 L6.000,2.000 L8.456,2.000 L8.456,2.500 C8.456,3.050 8.910,3.500 9.469,3.500 C10.027,3.500 10.481,3.050 10.481,2.500 L10.481,2.000 L10.903,2.000 C11.509,2.000 12.000,2.492 12.000,3.099 L12.000,11.900 C12.000,12.505 11.509,13.000 10.903,13.000 ZM10.987,5.000 L6.000,5.000 L6.000,4.986 L1.012,4.986 L1.012,11.867 C1.012,11.919 1.051,11.966 1.097,11.966 L6.000,11.966 L6.000,12.000 L10.903,12.000 C10.949,12.000 10.987,11.953 10.987,11.900 L10.987,5.000 ZM7.950,9.000 L9.975,9.000 L9.975,11.000 L7.950,11.000 L7.950,9.000 ZM7.950,6.000 L9.975,6.000 L9.975,8.000 L7.950,8.000 L7.950,6.000 ZM6.000,10.968 L5.062,10.968 L5.062,8.974 L6.000,8.974 L6.000,9.000 L6.937,9.000 L6.937,11.000 L6.000,11.000 L6.000,10.968 ZM6.000,7.977 L5.062,7.977 L5.062,5.983 L6.000,5.983 L6.000,6.000 L6.937,6.000 L6.937,8.000 L6.000,8.000 L6.000,7.977 ZM2.025,8.974 L4.050,8.974 L4.050,10.968 L2.025,10.968 L2.025,8.974 ZM2.025,5.983 L4.050,5.983 L4.050,7.977 L2.025,7.977 L2.025,5.983 ZM9.469,3.000 C9.189,3.000 8.962,2.776 8.962,2.500 L8.962,0.500 C8.962,0.223 9.189,-0.000 9.469,-0.000 C9.749,-0.000 9.975,0.223 9.975,0.500 L9.975,2.500 C9.975,2.776 9.749,3.000 9.469,3.000 ZM2.531,2.991 C2.251,2.991 2.025,2.769 2.025,2.493 L2.025,0.498 C2.025,0.223 2.251,-0.000 2.531,-0.000 C2.811,-0.000 3.037,0.223 3.037,0.498 L3.037,2.493 C3.037,2.769 2.811,2.991 2.531,2.991 Z" class="cls-1"/>
</svg>
