<svg xmlns="http://www.w3.org/2000/svg" xmlns:xlink="http://www.w3.org/1999/xlink" preserveAspectRatio="xMidYMid" width="20" height="20" viewBox="0 0 20 20">
  <defs>
    <style>
      .cls-1 {
        fill: #76c93f;
        fill-rule: evenodd;
      }
    </style>
  </defs>
  <path d="M17.577,19.999 L2.423,19.999 C1.085,19.999 0.001,18.939 0.001,17.630 L0.001,2.369 C0.001,1.061 1.085,0.000 2.423,0.000 L17.577,0.000 C18.915,0.000 19.999,1.060 19.999,2.369 L19.999,17.630 C19.999,18.939 18.915,19.999 17.577,19.999 ZM18.506,17.251 L18.506,2.777 C18.506,2.065 17.917,1.488 17.189,1.488 L2.783,1.488 C2.055,1.488 1.465,2.065 1.465,2.777 L1.465,17.251 C1.465,17.963 2.055,18.540 2.783,18.540 L17.189,18.540 C17.917,18.540 18.507,17.963 18.507,17.251 L18.506,17.251 ZM17.189,17.631 L2.783,17.631 C2.568,17.631 2.394,17.461 2.394,17.251 L2.394,2.777 C2.394,2.567 2.569,2.397 2.783,2.397 L17.189,2.397 C17.403,2.397 17.577,2.567 17.577,2.777 L17.577,17.251 C17.577,17.461 17.403,17.631 17.189,17.631 ZM13.138,5.522 C12.385,4.933 11.267,4.638 9.695,4.638 C8.139,4.638 7.042,4.737 6.254,4.868 L6.254,15.757 L8.761,15.757 L8.761,11.804 C9.014,11.837 9.300,11.854 9.635,11.854 C11.141,11.854 12.433,11.494 13.302,10.692 C13.972,10.071 14.341,9.155 14.342,8.074 C14.342,6.995 13.858,6.078 13.138,5.522 ZM9.618,9.939 C9.250,9.939 8.986,9.923 8.761,9.874 L8.761,6.618 C8.958,6.569 9.300,6.520 9.819,6.520 C11.090,6.520 11.810,7.125 11.810,8.140 C11.810,9.268 10.973,9.939 9.618,9.939 Z" class="cls-1"/>
</svg>
