<svg xmlns="http://www.w3.org/2000/svg" xmlns:xlink="http://www.w3.org/1999/xlink" preserveAspectRatio="xMidYMid" width="14" height="12" viewBox="0 0 14 12">
  <defs>
    <style>
      .cls-1 {
        fill: #999;
        fill-rule: evenodd;
      }
    </style>
  </defs>
  <path d="M8.449,2.059 C9.096,2.472 9.550,3.172 9.633,3.984 C9.896,4.110 10.190,4.182 10.500,4.182 C11.634,4.182 12.553,3.245 12.553,2.090 C12.553,0.935 11.634,-0.001 10.500,-0.001 C9.377,-0.001 8.466,0.918 8.449,2.059 ZM7.103,6.341 C8.237,6.341 9.157,5.405 9.157,4.250 C9.157,3.094 8.237,2.158 7.103,2.158 C5.969,2.158 5.050,3.094 5.050,4.250 C5.050,5.405 5.969,6.341 7.103,6.341 ZM7.974,6.484 L6.232,6.484 C4.782,6.484 3.603,7.685 3.603,9.162 L3.603,11.333 L3.608,11.367 L3.755,11.414 C5.139,11.854 6.340,12.001 7.330,12.001 C9.262,12.001 10.382,11.439 10.451,11.404 L10.588,11.333 L10.603,11.333 L10.603,9.162 C10.603,7.685 9.424,6.484 7.974,6.484 ZM11.371,4.325 L9.643,4.325 C9.624,5.029 9.329,5.664 8.862,6.120 C10.150,6.511 11.093,7.728 11.093,9.166 L11.093,9.834 C12.800,9.771 13.784,9.278 13.848,9.245 L13.986,9.173 L14.000,9.173 L14.000,7.002 C14.000,5.526 12.821,4.325 11.371,4.325 ZM3.500,4.182 C3.902,4.182 4.276,4.063 4.592,3.859 C4.693,3.191 5.045,2.606 5.548,2.208 C5.550,2.169 5.553,2.130 5.553,2.090 C5.553,0.935 4.634,-0.001 3.500,-0.001 C2.366,-0.001 1.447,0.935 1.447,2.090 C1.447,3.246 2.366,4.182 3.500,4.182 ZM5.344,6.120 C4.880,5.666 4.585,5.035 4.564,4.335 C4.500,4.330 4.436,4.325 4.371,4.325 L2.629,4.325 C1.179,4.325 -0.000,5.526 -0.000,7.002 L-0.000,9.173 L0.005,9.207 L0.152,9.254 C1.262,9.607 2.252,9.770 3.113,9.821 L3.113,9.166 C3.113,7.728 4.055,6.511 5.344,6.120 Z" class="cls-1"/>
</svg>
