<svg xmlns="http://www.w3.org/2000/svg" xmlns:xlink="http://www.w3.org/1999/xlink" preserveAspectRatio="xMidYMid" width="13" height="13" viewBox="0 0 13 13">
  <defs>
    <style>
      .cls-1 {
        fill: #999;
        fill-rule: evenodd;
      }
    </style>
  </defs>
  <path d="M6.500,-0.000 C2.910,-0.000 -0.000,2.910 -0.000,6.500 C-0.000,10.089 2.910,13.000 6.500,13.000 C10.090,13.000 13.000,10.089 13.000,6.500 C13.000,2.910 10.090,-0.000 6.500,-0.000 ZM9.310,7.736 L6.554,7.736 C6.545,7.736 6.536,7.734 6.527,7.734 C6.518,7.734 6.509,7.736 6.500,7.736 C6.252,7.736 6.050,7.535 6.050,7.286 L6.050,2.697 C6.050,2.449 6.252,2.248 6.500,2.248 C6.748,2.248 6.949,2.449 6.949,2.697 L6.949,6.837 L9.310,6.837 C9.558,6.837 9.759,7.038 9.759,7.286 C9.759,7.535 9.558,7.736 9.310,7.736 Z" class="cls-1"/>
</svg>
