<?xml version="1.0" encoding="UTF-8"?>
<svg width="106px" height="19px" viewBox="0 0 106 19" version="1.1" xmlns="http://www.w3.org/2000/svg" xmlns:xlink="http://www.w3.org/1999/xlink">
    <!-- Generator: Sketch 51 (57462) - http://www.bohemiancoding.com/sketch -->
    <title>Bamboo.Bar</title>
    <desc>Created with Sketch.</desc>
    <defs>
        <path d="M3,15.8847656 L3,3 L7.83398438,3 C8.8183643,3 9.60790718,3.13036979 10.2026367,3.39111328 C10.7973663,3.65185677 11.2631819,4.05321995 11.6000977,4.59521484 C11.9370134,5.13720974 12.1054688,5.7040986 12.1054688,6.29589844 C12.1054688,6.84668244 11.9560562,7.36523194 11.6572266,7.8515625 C11.3583969,8.33789306 10.9072296,8.73046726 10.3037109,9.02929688 C11.0830117,9.25781364 11.6821268,9.64745818 12.1010742,10.1982422 C12.5200216,10.7490262 12.7294922,11.3994103 12.7294922,12.1494141 C12.7294922,12.7529327 12.6020521,13.3139623 12.347168,13.8325195 C12.0922839,14.3510768 11.7773456,14.7509752 11.4023438,15.0322266 C11.0273419,15.313478 10.5571317,15.5258782 9.99169922,15.6694336 C9.4262667,15.812989 8.73340254,15.8847656 7.91308594,15.8847656 L3,15.8847656 Z M4.70507812,8.4140625 L7.49121094,8.4140625 C8.24707409,8.4140625 8.78906086,8.36425831 9.1171875,8.26464844 C9.55078342,8.13574154 9.87744031,7.92187649 10.097168,7.62304688 C10.3168956,7.32421726 10.4267578,6.94922101 10.4267578,6.49804688 C10.4267578,6.07031036 10.3242198,5.69384928 10.1191406,5.36865234 C9.91406147,5.04345541 9.62109565,4.82080138 9.24023438,4.70068359 C8.8593731,4.58056581 8.20605932,4.52050781 7.28027344,4.52050781 L4.70507812,4.52050781 L4.70507812,8.4140625 Z M4.70507812,14.3642578 L7.91308594,14.3642578 C8.46386994,14.3642578 8.85058482,14.3437502 9.07324219,14.3027344 C9.46582228,14.2324215 9.79394399,14.1152352 10.0576172,13.9511719 C10.3212904,13.7871086 10.5380851,13.5483414 10.7080078,13.2348633 C10.8779305,12.9213852 10.9628906,12.5595724 10.9628906,12.1494141 C10.9628906,11.6689429 10.839845,11.2514666 10.59375,10.8969727 C10.347655,10.5424787 10.0063498,10.2934577 9.56982422,10.1499023 C9.1332986,10.0063469 8.50488691,9.93457031 7.68457031,9.93457031 L4.70507812,9.93457031 L4.70507812,14.3642578 Z M20.9648438,14.7333984 C20.3789033,15.2314478 19.8149441,15.5830068 19.2729492,15.7880859 C18.7309543,15.9931651 18.1494172,16.0957031 17.5283203,16.0957031 C16.5029246,16.0957031 15.7148465,15.8452173 15.1640625,15.3442383 C14.6132785,14.8432592 14.3378906,14.2031289 14.3378906,13.4238281 C14.3378906,12.9667946 14.4418935,12.5493183 14.6499023,12.1713867 C14.8579112,11.7934551 15.1303694,11.4902355 15.4672852,11.2617188 C15.8042009,11.033202 16.1835916,10.8603521 16.6054688,10.7431641 C16.9160172,10.6611324 17.3847625,10.5820316 18.0117188,10.5058594 C19.2890689,10.3535149 20.2294892,10.1718761 20.8330078,9.9609375 C20.8388672,9.74413954 20.8417969,9.60644561 20.8417969,9.54785156 C20.8417969,8.90331709 20.6923843,8.44922007 20.3935547,8.18554688 C19.9892558,7.82812321 19.3886759,7.64941406 18.5917969,7.64941406 C17.8476525,7.64941406 17.2983416,7.77978385 16.9438477,8.04052734 C16.5893537,8.30127083 16.3271493,8.762692 16.1572266,9.42480469 L14.6103516,9.21386719 C14.7509773,8.5517545 14.9824203,8.01709188 15.3046875,7.60986328 C15.6269547,7.20263468 16.0927704,6.88916125 16.7021484,6.66943359 C17.3115265,6.44970593 18.0175741,6.33984375 18.8203125,6.33984375 C19.6171915,6.33984375 20.2646459,6.43359281 20.7626953,6.62109375 C21.2607447,6.80859469 21.626952,7.04443217 21.8613281,7.32861328 C22.0957043,7.61279439 22.2597652,7.97167752 22.3535156,8.40527344 C22.4062503,8.67480604 22.4326172,9.1611293 22.4326172,9.86425781 L22.4326172,11.9736328 C22.4326172,13.4443433 22.4663083,14.3745098 22.5336914,14.7641602 C22.6010746,15.1538105 22.734374,15.527342 22.9335938,15.8847656 L21.28125,15.8847656 C21.1171867,15.556639 21.011719,15.1728538 20.9648438,14.7333984 Z M20.8330078,11.2001953 C20.2587862,11.4345715 19.3974667,11.6337882 18.2490234,11.7978516 C17.5986296,11.891602 17.1386732,11.9970697 16.8691406,12.1142578 C16.599608,12.2314459 16.3916023,12.4028309 16.2451172,12.628418 C16.0986321,12.854005 16.0253906,13.1044908 16.0253906,13.3798828 C16.0253906,13.8017599 16.185057,14.1533189 16.5043945,14.4345703 C16.8237321,14.7158217 17.2910125,14.8564453 17.90625,14.8564453 C18.515628,14.8564453 19.0576148,14.7231459 19.5322266,14.456543 C20.0068383,14.1899401 20.3554676,13.8251976 20.578125,13.3623047 C20.7480477,13.004881 20.8330078,12.4775425 20.8330078,11.7802734 L20.8330078,11.2001953 Z M24.8847656,15.8847656 L24.8847656,6.55078125 L26.2998047,6.55078125 L26.2998047,7.86035156 C26.5927749,7.40331803 26.9824194,7.03564592 27.46875,6.75732422 C27.9550806,6.47900251 28.508786,6.33984375 29.1298828,6.33984375 C29.8212925,6.33984375 30.3881814,6.483397 30.8305664,6.77050781 C31.2729514,7.05761862 31.58496,7.4589818 31.7666016,7.97460938 C32.5048865,6.88476018 33.4658144,6.33984375 34.6494141,6.33984375 C35.5751999,6.33984375 36.2871069,6.59618884 36.7851562,7.10888672 C37.2832056,7.62158459 37.5322266,8.41112748 37.5322266,9.47753906 L37.5322266,15.8847656 L35.9589844,15.8847656 L35.9589844,10.0048828 C35.9589844,9.37206715 35.9077154,8.9165053 35.8051758,8.63818359 C35.7026362,8.35986189 35.5166029,8.13574304 35.2470703,7.96582031 C34.9775377,7.79589759 34.6611346,7.7109375 34.2978516,7.7109375 C33.6415983,7.7109375 33.0966819,7.92919704 32.6630859,8.36572266 C32.22949,8.80224828 32.0126953,9.50097176 32.0126953,10.4619141 L32.0126953,15.8847656 L30.4306641,15.8847656 L30.4306641,9.8203125 C30.4306641,9.11718398 30.3017591,8.58984551 30.0439453,8.23828125 C29.7861315,7.88671699 29.3642607,7.7109375 28.7783203,7.7109375 C28.3330056,7.7109375 27.9213886,7.82812383 27.543457,8.0625 C27.1655255,8.29687617 26.8916024,8.63964618 26.7216797,9.09082031 C26.551757,9.54199444 26.4667969,10.1923786 26.4667969,11.0419922 L26.4667969,15.8847656 L24.8847656,15.8847656 Z M41.3378906,15.8847656 L39.8701172,15.8847656 L39.8701172,3 L41.4521484,3 L41.4521484,7.59667969 C42.1201205,6.75878487 42.9726511,6.33984375 44.0097656,6.33984375 C44.5839872,6.33984375 45.1274388,6.45556525 45.6401367,6.68701172 C46.1528346,6.91845819 46.5747054,7.24365025 46.9057617,7.66259766 C47.2368181,8.08154506 47.4960928,8.5869111 47.6835938,9.17871094 C47.8710947,9.77051077 47.9648438,10.4033169 47.9648438,11.0771484 C47.9648438,12.6767658 47.5693399,13.9130816 46.7783203,14.7861328 C45.9873007,15.6591841 45.0380915,16.0957031 43.9306641,16.0957031 C42.8290961,16.0957031 41.9648469,15.6357468 41.3378906,14.7158203 L41.3378906,15.8847656 Z M41.3203125,11.1474609 C41.3203125,12.2666072 41.4726547,13.0751928 41.7773438,13.5732422 C42.2753931,14.3876994 42.9492145,14.7949219 43.7988281,14.7949219 C44.4902378,14.7949219 45.0878881,14.4946319 45.5917969,13.894043 C46.0957056,13.293454 46.3476562,12.3984434 46.3476562,11.2089844 C46.3476562,9.99022828 46.1059594,9.09082321 45.6225586,8.51074219 C45.1391577,7.93066116 44.5546909,7.640625 43.8691406,7.640625 C43.1777309,7.640625 42.5800806,7.94091497 42.0761719,8.54150391 C41.5722631,9.14209285 41.3203125,10.0107365 41.3203125,11.1474609 Z M49.3007812,11.2177734 C49.3007812,9.48924917 49.7812452,8.20898854 50.7421875,7.37695312 C51.5449259,6.68554342 52.5234317,6.33984375 53.6777344,6.33984375 C54.9609439,6.33984375 56.0097616,6.7602497 56.8242188,7.60107422 C57.6386759,8.44189874 58.0458984,9.60350821 58.0458984,11.0859375 C58.0458984,12.2871154 57.8657245,13.2319302 57.5053711,13.9204102 C57.1450177,14.6088902 56.6206089,15.1435528 55.9321289,15.5244141 C55.2436489,15.9052753 54.4921916,16.0957031 53.6777344,16.0957031 C52.3710872,16.0957031 51.3149454,15.676762 50.5092773,14.8388672 C49.7036093,14.0009724 49.3007812,12.7939532 49.3007812,11.2177734 Z M50.9267578,11.2177734 C50.9267578,12.4130919 51.1874974,13.3081025 51.7089844,13.902832 C52.2304714,14.4975616 52.8867148,14.7949219 53.6777344,14.7949219 C54.4628946,14.7949219 55.1162083,14.4960967 55.6376953,13.8984375 C56.1591823,13.3007783 56.4199219,12.3896546 56.4199219,11.1650391 C56.4199219,10.0107364 56.1577175,9.13623344 55.6333008,8.54150391 C55.1088841,7.94677437 54.4570351,7.64941406 53.6777344,7.64941406 C52.8867148,7.64941406 52.2304714,7.94530954 51.7089844,8.53710938 C51.1874974,9.12890921 50.9267578,10.022455 50.9267578,11.2177734 Z M59.3115234,11.2177734 C59.3115234,9.48924917 59.7919874,8.20898854 60.7529297,7.37695312 C61.5556681,6.68554342 62.5341739,6.33984375 63.6884766,6.33984375 C64.9716861,6.33984375 66.0205037,6.7602497 66.8349609,7.60107422 C67.6494181,8.44189874 68.0566406,9.60350821 68.0566406,11.0859375 C68.0566406,12.2871154 67.8764666,13.2319302 67.5161133,13.9204102 C67.1557599,14.6088902 66.6313511,15.1435528 65.9428711,15.5244141 C65.2543911,15.9052753 64.5029338,16.0957031 63.6884766,16.0957031 C62.3818294,16.0957031 61.3256876,15.676762 60.5200195,14.8388672 C59.7143514,14.0009724 59.3115234,12.7939532 59.3115234,11.2177734 Z M60.9375,11.2177734 C60.9375,12.4130919 61.1982396,13.3081025 61.7197266,13.902832 C62.2412135,14.4975616 62.897457,14.7949219 63.6884766,14.7949219 C64.4736367,14.7949219 65.1269505,14.4960967 65.6484375,13.8984375 C66.1699245,13.3007783 66.4306641,12.3896546 66.4306641,11.1650391 C66.4306641,10.0107364 66.1684597,9.13623344 65.644043,8.54150391 C65.1196263,7.94677437 64.4677773,7.64941406 63.6884766,7.64941406 C62.897457,7.64941406 62.2412135,7.94530954 61.7197266,8.53710938 C61.1982396,9.12890921 60.9375,10.022455 60.9375,11.2177734 Z M70.359375,15.8847656 L70.359375,14.0830078 L72.1611328,14.0830078 L72.1611328,15.8847656 L70.359375,15.8847656 Z M75.0439453,15.8847656 L75.0439453,3 L79.8779297,3 C80.8623096,3 81.6518525,3.13036979 82.246582,3.39111328 C82.8413116,3.65185677 83.3071272,4.05321995 83.644043,4.59521484 C83.9809587,5.13720974 84.1494141,5.7040986 84.1494141,6.29589844 C84.1494141,6.84668244 84.0000015,7.36523194 83.7011719,7.8515625 C83.4023423,8.33789306 82.9511749,8.73046726 82.3476562,9.02929688 C83.126957,9.25781364 83.7260721,9.64745818 84.1450195,10.1982422 C84.5639669,10.7490262 84.7734375,11.3994103 84.7734375,12.1494141 C84.7734375,12.7529327 84.6459974,13.3139623 84.3911133,13.8325195 C84.1362292,14.3510768 83.8212909,14.7509752 83.4462891,15.0322266 C83.0712872,15.313478 82.601077,15.5258782 82.0356445,15.6694336 C81.470212,15.812989 80.7773479,15.8847656 79.9570312,15.8847656 L75.0439453,15.8847656 Z M76.7490234,8.4140625 L79.5351562,8.4140625 C80.2910194,8.4140625 80.8330062,8.36425831 81.1611328,8.26464844 C81.5947287,8.13574154 81.9213856,7.92187649 82.1411133,7.62304688 C82.3608409,7.32421726 82.4707031,6.94922101 82.4707031,6.49804688 C82.4707031,6.07031036 82.3681651,5.69384928 82.1630859,5.36865234 C81.9580068,5.04345541 81.665041,4.82080138 81.2841797,4.70068359 C80.9033184,4.58056581 80.2500046,4.52050781 79.3242188,4.52050781 L76.7490234,4.52050781 L76.7490234,8.4140625 Z M76.7490234,14.3642578 L79.9570312,14.3642578 C80.5078153,14.3642578 80.8945301,14.3437502 81.1171875,14.3027344 C81.5097676,14.2324215 81.8378893,14.1152352 82.1015625,13.9511719 C82.3652357,13.7871086 82.5820304,13.5483414 82.7519531,13.2348633 C82.9218758,12.9213852 83.0068359,12.5595724 83.0068359,12.1494141 C83.0068359,11.6689429 82.8837903,11.2514666 82.6376953,10.8969727 C82.3916003,10.5424787 82.0502952,10.2934577 81.6137695,10.1499023 C81.1772439,10.0063469 80.5488322,9.93457031 79.7285156,9.93457031 L76.7490234,9.93457031 L76.7490234,14.3642578 Z M93.0087891,14.7333984 C92.4228486,15.2314478 91.8588894,15.5830068 91.3168945,15.7880859 C90.7748996,15.9931651 90.1933625,16.0957031 89.5722656,16.0957031 C88.5468699,16.0957031 87.7587918,15.8452173 87.2080078,15.3442383 C86.6572238,14.8432592 86.3818359,14.2031289 86.3818359,13.4238281 C86.3818359,12.9667946 86.4858388,12.5493183 86.6938477,12.1713867 C86.9018565,11.7934551 87.1743147,11.4902355 87.5112305,11.2617188 C87.8481462,11.033202 88.227537,10.8603521 88.6494141,10.7431641 C88.9599625,10.6611324 89.4287078,10.5820316 90.0556641,10.5058594 C91.3330142,10.3535149 92.2734345,10.1718761 92.8769531,9.9609375 C92.8828125,9.74413954 92.8857422,9.60644561 92.8857422,9.54785156 C92.8857422,8.90331709 92.7363296,8.44922007 92.4375,8.18554688 C92.0332011,7.82812321 91.4326212,7.64941406 90.6357422,7.64941406 C89.8915978,7.64941406 89.3422869,7.77978385 88.987793,8.04052734 C88.633299,8.30127083 88.3710946,8.762692 88.2011719,9.42480469 L86.6542969,9.21386719 C86.7949226,8.5517545 87.0263656,8.01709188 87.3486328,7.60986328 C87.6709,7.20263468 88.1367157,6.88916125 88.7460938,6.66943359 C89.3554718,6.44970593 90.0615194,6.33984375 90.8642578,6.33984375 C91.6611368,6.33984375 92.3085913,6.43359281 92.8066406,6.62109375 C93.30469,6.80859469 93.6708973,7.04443217 93.9052734,7.32861328 C94.1396496,7.61279439 94.3037105,7.97167752 94.3974609,8.40527344 C94.4501956,8.67480604 94.4765625,9.1611293 94.4765625,9.86425781 L94.4765625,11.9736328 C94.4765625,13.4443433 94.5102536,14.3745098 94.5776367,14.7641602 C94.6450199,15.1538105 94.7783193,15.527342 94.9775391,15.8847656 L93.3251953,15.8847656 C93.161132,15.556639 93.0556643,15.1728538 93.0087891,14.7333984 Z M92.8769531,11.2001953 C92.3027315,11.4345715 91.441412,11.6337882 90.2929688,11.7978516 C89.6425749,11.891602 89.1826185,11.9970697 88.9130859,12.1142578 C88.6435533,12.2314459 88.4355476,12.4028309 88.2890625,12.628418 C88.1425774,12.854005 88.0693359,13.1044908 88.0693359,13.3798828 C88.0693359,13.8017599 88.2290023,14.1533189 88.5483398,14.4345703 C88.8676774,14.7158217 89.3349579,14.8564453 89.9501953,14.8564453 C90.5595734,14.8564453 91.1015601,14.7231459 91.5761719,14.456543 C92.0507836,14.1899401 92.3994129,13.8251976 92.6220703,13.3623047 C92.791993,13.004881 92.8769531,12.4775425 92.8769531,11.7802734 L92.8769531,11.2001953 Z M96.9111328,15.8847656 L96.9111328,6.55078125 L98.3349609,6.55078125 L98.3349609,7.96582031 C98.698244,7.30370763 99.0336899,6.86718855 99.3413086,6.65625 C99.6489273,6.44531145 99.9873028,6.33984375 100.356445,6.33984375 C100.889651,6.33984375 101.431638,6.50976393 101.982422,6.84960938 L101.4375,8.31738281 C101.050779,8.08886604 100.664064,7.97460938 100.277344,7.97460938 C99.9316389,7.97460938 99.6210951,8.07861224 99.3457031,8.28662109 C99.0703111,8.49462995 98.874024,8.78320128 98.7568359,9.15234375 C98.5810538,9.71484656 98.4931641,10.3300748 98.4931641,10.9980469 L98.4931641,15.8847656 L96.9111328,15.8847656 Z" id="path-1"></path>
        <filter x="-4.5%" y="-34.4%" width="109.5%" height="168.7%" filterUnits="objectBoundingBox" id="filter-2">
            <feMorphology radius="1" operator="dilate" in="SourceAlpha" result="shadowSpreadOuter1"></feMorphology>
            <feOffset dx="0" dy="0" in="shadowSpreadOuter1" result="shadowOffsetOuter1"></feOffset>
            <feGaussianBlur stdDeviation="0.5" in="shadowOffsetOuter1" result="shadowBlurOuter1"></feGaussianBlur>
            <feColorMatrix values="0 0 0 0 1   0 0 0 0 1   0 0 0 0 1  0 0 0 1 0" type="matrix" in="shadowBlurOuter1"></feColorMatrix>
        </filter>
    </defs>
    <g id="Page-1" stroke="none" stroke-width="1" fill="none" fill-rule="evenodd">
        <g id="Bamboo.Bar">
            <use fill="black" fill-opacity="1" filter="url(#filter-2)" xlink:href="#path-1"></use>
            <use fill="#7F0202" fill-rule="evenodd" xlink:href="#path-1"></use>
        </g>
    </g>
</svg>