<svg width="106" height="19" viewBox="0 0 106 19" xmlns="http://www.w3.org/2000/svg" xmlns:xlink="http://www.w3.org/1999/xlink">
    <title>
        Bamboo.Bar
    </title>
    <defs>
        <path d="M3 15.885V3h4.834c.984 0 1.774.13 2.369.391.594.26 1.06.662 1.397 1.204.337.542.505 1.11.505 1.7 0 .552-.149 1.07-.448 1.557-.299.486-.75.878-1.353 1.177.779.229 1.378.618 1.797 1.17.419.55.628 1.2.628 1.95 0 .604-.127 1.165-.382 1.684-.255.518-.57.918-.945 1.2-.375.28-.845.493-1.41.636-.566.144-1.259.216-2.079.216H3zm1.705-7.47h2.786c.756 0 1.298-.05 1.626-.15.434-.13.76-.343.98-.642.22-.299.33-.674.33-1.125 0-.428-.103-.804-.308-1.13a1.557 1.557 0 0 0-.879-.667c-.38-.12-1.034-.18-1.96-.18H4.705v3.893zm0 5.95h3.208c.55 0 .938-.021 1.16-.062.393-.07.72-.188.985-.352.263-.164.48-.403.65-.716.17-.314.255-.675.255-1.086 0-.48-.123-.898-.37-1.252a1.947 1.947 0 0 0-1.023-.747c-.437-.144-1.065-.215-1.885-.215h-2.98v4.43zm16.26.368c-.586.498-1.15.85-1.692 1.055a4.889 4.889 0 0 1-1.745.308c-1.025 0-1.813-.25-2.364-.752-.55-.5-.826-1.14-.826-1.92 0-.457.104-.875.312-1.253.208-.378.48-.68.817-.91a3.843 3.843 0 0 1 1.138-.518c.311-.082.78-.161 1.407-.237 1.277-.152 2.217-.334 2.821-.545.006-.217.009-.355.009-.413 0-.645-.15-1.099-.448-1.362-.405-.358-1.005-.537-1.802-.537-.744 0-1.294.13-1.648.392-.355.26-.617.722-.787 1.384l-1.547-.211c.141-.662.372-1.197.695-1.604.322-.407.788-.72 1.397-.94.61-.22 1.316-.33 2.118-.33.797 0 1.445.094 1.943.281.498.188.864.423 1.098.708.235.284.399.643.493 1.076.052.27.079.756.079 1.46v2.109c0 1.47.033 2.4.1 2.79.068.39.201.763.4 1.12h-1.652a3.354 3.354 0 0 1-.316-1.15zm-.132-3.533c-.574.235-1.436.434-2.584.598-.65.094-1.11.2-1.38.316a1.35 1.35 0 0 0-.844 1.266c0 .422.16.773.48 1.055.319.28.786.421 1.401.421.61 0 1.152-.133 1.626-.4a2.463 2.463 0 0 0 1.046-1.094c.17-.357.255-.884.255-1.582v-.58zm4.052 4.685V6.55H26.3v1.31a3.327 3.327 0 0 1 1.169-1.104c.486-.278 1.04-.417 1.66-.417.692 0 1.26.143 1.702.43.442.288.754.689.936 1.205.738-1.09 1.699-1.635 2.882-1.635.926 0 1.638.256 2.136.769.498.513.747 1.302.747 2.369v6.407H35.96v-5.88c0-.633-.051-1.088-.154-1.367a1.324 1.324 0 0 0-.558-.672 1.742 1.742 0 0 0-.95-.255c-.655 0-1.2.218-1.634.655-.434.436-.65 1.135-.65 2.096v5.423H30.43V9.82c0-.703-.13-1.23-.387-1.582-.258-.351-.68-.527-1.266-.527-.445 0-.857.117-1.235.351a1.994 1.994 0 0 0-.821 1.029c-.17.451-.255 1.101-.255 1.951v4.843h-1.582zm16.453 0H39.87V3h1.582v4.597c.668-.838 1.52-1.257 2.558-1.257.574 0 1.117.116 1.63.347a3.33 3.33 0 0 1 1.266.976c.33.419.59.924.778 1.516a6.25 6.25 0 0 1 .28 1.898c0 1.6-.395 2.836-1.186 3.71-.79.872-1.74 1.309-2.847 1.309-1.102 0-1.966-.46-2.593-1.38v1.169zm-.018-4.738c0 1.12.153 1.928.457 2.426.498.815 1.172 1.222 2.022 1.222.691 0 1.289-.3 1.793-.901.504-.6.756-1.496.756-2.685 0-1.219-.242-2.118-.725-2.698-.484-.58-1.068-.87-1.754-.87-.691 0-1.289.3-1.793.9-.504.601-.756 1.47-.756 2.606zm7.98.07c0-1.728.481-3.008 1.442-3.84.803-.691 1.781-1.037 2.936-1.037 1.283 0 2.332.42 3.146 1.261.815.84 1.222 2.003 1.222 3.485 0 1.201-.18 2.146-.54 2.834a3.826 3.826 0 0 1-1.574 1.604 4.58 4.58 0 0 1-2.254.572c-1.307 0-2.363-.42-3.169-1.257-.805-.838-1.208-2.045-1.208-3.621zm1.627 0c0 1.196.26 2.091.782 2.686a2.507 2.507 0 0 0 1.969.892c.785 0 1.438-.299 1.96-.897.521-.597.782-1.508.782-2.733 0-1.154-.262-2.029-.787-2.623-.524-.595-1.176-.893-1.955-.893-.791 0-1.448.296-1.969.888-.522.592-.782 1.485-.782 2.68zm8.385 0c0-1.728.48-3.008 1.44-3.84.804-.691 1.782-1.037 2.936-1.037 1.284 0 2.333.42 3.147 1.261.814.84 1.222 2.003 1.222 3.485 0 1.201-.18 2.146-.54 2.834a3.826 3.826 0 0 1-1.574 1.604 4.58 4.58 0 0 1-2.255.572c-1.306 0-2.362-.42-3.168-1.257-.806-.838-1.208-2.045-1.208-3.621zm1.626 0c0 1.196.26 2.091.782 2.686a2.507 2.507 0 0 0 1.968.892c.786 0 1.439-.299 1.96-.897.522-.597.783-1.508.783-2.733 0-1.154-.263-2.029-.787-2.623-.524-.595-1.176-.893-1.956-.893-.79 0-1.447.296-1.968.888-.522.592-.782 1.485-.782 2.68zm9.421 4.668v-1.802h1.802v1.802H70.36zm4.685 0V3h4.834c.984 0 1.774.13 2.369.391.594.26 1.06.662 1.397 1.204.337.542.505 1.11.505 1.7 0 .552-.149 1.07-.448 1.557-.299.486-.75.878-1.353 1.177.779.229 1.378.618 1.797 1.17.419.55.628 1.2.628 1.95 0 .604-.127 1.165-.382 1.684-.255.518-.57.918-.945 1.2-.375.28-.845.493-1.41.636-.566.144-1.259.216-2.079.216h-4.913zm1.705-7.47h2.786c.756 0 1.298-.05 1.626-.15.434-.13.76-.343.98-.642.22-.299.33-.674.33-1.125 0-.428-.103-.804-.308-1.13a1.557 1.557 0 0 0-.879-.667c-.38-.12-1.034-.18-1.96-.18H76.75v3.893zm0 5.95h3.208c.55 0 .938-.021 1.16-.062.393-.07.72-.188.985-.352.263-.164.48-.403.65-.716.17-.314.255-.675.255-1.086 0-.48-.123-.898-.37-1.252a1.947 1.947 0 0 0-1.023-.747c-.437-.144-1.065-.215-1.885-.215h-2.98v4.43zm16.26.368c-.586.498-1.15.85-1.692 1.055a4.889 4.889 0 0 1-1.745.308c-1.025 0-1.813-.25-2.364-.752-.55-.5-.826-1.14-.826-1.92 0-.457.104-.875.312-1.253.208-.378.48-.68.817-.91a3.843 3.843 0 0 1 1.138-.518c.311-.082.78-.161 1.407-.237 1.277-.152 2.217-.334 2.821-.545.006-.217.009-.355.009-.413 0-.645-.15-1.099-.448-1.362-.405-.358-1.005-.537-1.802-.537-.744 0-1.294.13-1.648.392-.355.26-.617.722-.787 1.384l-1.547-.211c.14-.662.372-1.197.695-1.604.322-.407.788-.72 1.397-.94.61-.22 1.316-.33 2.118-.33.797 0 1.445.094 1.943.281.498.188.864.423 1.098.708.235.284.399.643.492 1.076.053.27.08.756.08 1.46v2.109c0 1.47.033 2.4.1 2.79.068.39.201.763.4 1.12h-1.652a3.354 3.354 0 0 1-.316-1.15zm-.132-3.533c-.574.235-1.436.434-2.584.598-.65.094-1.11.2-1.38.316a1.35 1.35 0 0 0-.844 1.266c0 .422.16.773.48 1.055.319.28.786.421 1.401.421.61 0 1.152-.133 1.626-.4a2.463 2.463 0 0 0 1.046-1.094c.17-.357.255-.884.255-1.582v-.58zm4.034 4.685V6.55h1.424v1.415c.363-.662.699-1.099 1.006-1.31.308-.21.646-.316 1.015-.316.534 0 1.076.17 1.626.51l-.544 1.467c-.387-.228-.774-.342-1.16-.342-.346 0-.657.104-.932.312a1.69 1.69 0 0 0-.59.865 6.162 6.162 0 0 0-.263 1.846v4.887h-1.582z" id="b"/>
        <filter x="-4.5%" y="-34.4%" width="109.5%" height="168.7%" filterUnits="objectBoundingBox" id="a">
            <feMorphology radius="1" operator="dilate" in="SourceAlpha" result="shadowSpreadOuter1"/>
            <feOffset in="shadowSpreadOuter1" result="shadowOffsetOuter1"/>
            <feGaussianBlur stdDeviation=".5" in="shadowOffsetOuter1" result="shadowBlurOuter1"/>
            <feColorMatrix values="0 0 0 0 1 0 0 0 0 1 0 0 0 0 1 0 0 0 1 0" in="shadowBlurOuter1"/>
        </filter>
    </defs>
    <g fill="none" fill-rule="evenodd">
        <use fill="#000" filter="url(#a)" xlink:href="#b"/>
        <use fill="#7F0202" xlink:href="#b"/>
    </g>
</svg>
