<?xml version="1.0" encoding="UTF-8"?><!DOCTYPE svg PUBLIC "-//W3C//DTD SVG 1.1//EN" "http://www.w3.org/Graphics/SVG/1.1/DTD/svg11.dtd"><svg xmlns="http://www.w3.org/2000/svg"><symbol id="icon-barman" viewBox="0 0 463.002 463.002">
    <path d="M183.501 167a7.5 7.5 0 0 0 7.5-7.5v-8a7.5 7.5 0 0 0-15 0v8a7.5 7.5 0 0 0 7.5 7.5z"/>
    <path d="M279.501 167a7.5 7.5 0 0 0 7.5-7.5v-8a7.5 7.5 0 0 0-15 0v8a7.5 7.5 0 0 0 7.5 7.5z"/>
    <path d="M203.415 215.902c6.942 4.511 17.179 7.098 28.086 7.098s21.145-2.587 28.086-7.098a7.5 7.5 0 0 0-8.172-12.578c-4.505 2.928-11.95 4.676-19.914 4.676-7.964 0-15.408-1.748-19.914-4.676a7.499 7.499 0 0 0-10.375 2.203 7.499 7.499 0 0 0 2.203 10.375z"/>
    <path d="M390.521 295.267L303 266.094v-27.405l1.376-.813C323.266 226.714 335 205.402 335 182.257v-36.9a14.18 14.18 0 0 0 8-12.813V97.47c21.202-38.689 8.326-89.672 7.759-91.856a7.5 7.5 0 0 0-9.204-5.358c-21.249 5.706-48.183 3.734-74.23 1.829C228.721-.74 188.803-3.66 162.746 17.698c-5.827 4.776-9.845 10.37-12.614 15.759l-5.879.979c-22.818 3.804-38.289 25.462-34.486 48.281l8.829 52.971c.752 4.514 3.523 8.294 7.601 10.371.589.3 1.193.545 1.804.759v35.438c0 23.145 11.734 44.457 30.624 55.619l1.376.813v27.405L72.48 295.267a47.44 47.44 0 0 0-32.479 45.063v91.17c0 17.369 14.131 31.5 31.5 31.5h143.974l.025.002.024-.002h32.204l.024.002.025-.002h143.724c17.369 0 31.5-14.131 31.5-31.5v-91.17a47.44 47.44 0 0 0-32.48-45.063zm-46.521.305V416h-4.594l-25.761-36.801a7.5 7.5 0 0 0-12.288 0L275.596 416h-7.431c5.772-19.092 12.255-41.897 16.899-62.154a15.33 15.33 0 0 0 2.461.224c2.822 0 5.634-.781 8.139-2.329 4.603-2.845 7.351-7.774 7.351-13.186v-38.111c0-5.411-2.748-10.34-7.351-13.186a15.933 15.933 0 0 0-1.211-.668l4.109-6.164L344 295.572zM321.096 416h-27.19l13.595-19.422L321.096 416zm-81.595-120.001h-16c-4.638 0-8.795 2.058-11.638 5.296l-23.227-11.613-13.635-20.453v-21.677l24.955 14.746c9.633 5.693 20.539 8.702 31.551 8.702 11 0 21.905-3.009 31.539-8.701l24.955-14.747v21.677l-13.643 20.464-23.215 11.607c-2.843-3.242-7.002-5.301-11.642-5.301zm.5 15.501v16a.5.5 0 0 1-.5.5h-16a.5.5 0 0 1-.5-.5v-15.499c.012-.183.011-.366.01-.548a.495.495 0 0 1 .49-.453h16a.5.5 0 0 1 .5.5zm-32 4.636v6.729l-32.276 16.138c-.093.047-.25.125-.486-.021-.237-.147-.237-.321-.237-.426v-38.111c0-.104 0-.279.237-.426.237-.146.394-.068.486-.021l32.276 16.138zm47 .005l32.291-16.144c.093-.046.25-.125.486.021.237.147.237.321.237.426v38.111c0 .104 0 .279-.237.426-.237.146-.393.068-.486.021l-32.291-16.146v-6.715zM124.563 80.253c-2.328-13.972 6.589-27.266 20.121-30.6-.576 3.201-.668 5.304-.678 5.578a7.499 7.499 0 0 0 6.744 7.73 7.499 7.499 0 0 0 8.149-6.23l1.287-7.729c1.484-5.662 4.785-13.731 12.069-19.701 21.426-17.563 56.666-14.984 93.976-12.255 24.378 1.783 49.498 3.622 71.474-.542 2.59 14.729 6.382 49.324-8.687 75.225A7.49 7.49 0 0 0 328 95.5v35.865l-13.25-6.625a6.746 6.746 0 0 1-3.75-6.067v-8.889c0-12.011-9.772-21.783-21.783-21.783H173.784c-12.011 0-21.783 9.772-21.783 21.783v8.889a6.746 6.746 0 0 1-3.75 6.067l-15.022 7.511-8.666-51.998zm18.438 102.004v-38.122l11.958-5.979c7.428-3.714 12.042-11.18 12.042-19.484v-8.889a6.79 6.79 0 0 1 6.783-6.783h115.434a6.79 6.79 0 0 1 6.783 6.783v8.889c0 8.304 4.614 15.77 12.042 19.484l11.958 5.979v38.122c0 17.865-8.911 34.229-23.255 42.705l-41.331 24.423c-7.324 4.328-15.591 6.615-23.92 6.615-8.317 0-16.584-2.288-23.908-6.615l-41.331-24.423c-14.344-8.476-23.255-24.84-23.255-42.705zm-39 265.743h-32.5c-9.098 0-16.5-7.402-16.5-16.5v-91.17a32.459 32.459 0 0 1 22.223-30.832l26.777-8.926V448zm15 .001V295.572l45.437-15.145 4.113 6.169c-.406.205-.807.421-1.199.663-4.603 2.845-7.351 7.774-7.351 13.186v38.111c0 5.411 2.748 10.34 7.351 13.186a15.457 15.457 0 0 0 8.139 2.329c.899 0 1.796-.105 2.687-.264 7.827 34.151 20.891 75.572 26.95 94.194h-86.127zm105-.001h-3.09c-5.099-15.475-20.463-63.16-28.766-100.437l19.718-9.859c2.843 3.238 7 5.296 11.638 5.296h.5v105zm18.34 0h-3.34V343h.5c4.64 0 8.799-2.06 11.642-5.301l19.94 9.97c-8.306 37.25-23.648 84.869-28.742 100.331zm101.66 0h-85.877a1622.113 1622.113 0 0 0 5.425-17h71.946l.012.001.01-.001h8.484v17zm64-16.5c0 9.098-7.402 16.5-16.5 16.5h-32.5V300.572l26.777 8.926a32.459 32.459 0 0 1 22.223 30.832v91.17z"/>
</symbol><symbol id="icon-best" viewBox="0 0 512 512">
    <path d="M493.22 256.001l18.404-69.354a10.982 10.982 0 0 0-1.924-9.582 10.984 10.984 0 0 0-8.768-4.317H456.34c-4.143 0-7.5 3.357-7.5 7.5s3.357 7.5 7.5 7.5h39.473l-17.361 65.427a11.11 11.11 0 0 0 .003 5.665l17.358 65.416h-39.782c-4.143 0-7.5 3.357-7.5 7.5s3.357 7.5 7.5 7.5h44.901c3.462 0 6.657-1.573 8.768-4.317a10.989 10.989 0 0 0 1.924-9.582l-18.404-69.356z"/>
    <path d="M55.286 324.254H16.187l17.361-65.427a11.11 11.11 0 0 0-.003-5.665l-17.358-65.416h39.161c4.142.001 7.5-3.356 7.5-7.499s-3.357-7.5-7.5-7.5h-44.28a10.983 10.983 0 0 0-8.768 4.317 10.989 10.989 0 0 0-1.924 9.582l18.404 69.355L.376 325.355a10.982 10.982 0 0 0 1.924 9.582 10.984 10.984 0 0 0 8.768 4.317h44.218c4.143 0 7.5-3.357 7.5-7.5s-3.357-7.5-7.5-7.5z"/>
    <path d="M404.385 235.938c-4.772-35.622-22.321-68.394-49.412-92.28-27.338-24.102-62.487-37.376-98.972-37.376-36.478 0-71.623 13.27-98.959 37.366-27.088 23.877-44.64 56.641-49.42 92.254a7.499 7.499 0 0 0 6.434 8.432 7.503 7.503 0 0 0 8.432-6.435c4.299-32.034 20.093-61.51 44.472-82.999 24.594-21.678 56.217-33.618 89.041-33.618 32.83 0 64.456 11.943 89.052 33.628 24.381 21.495 40.172 50.979 44.465 83.02a7.502 7.502 0 0 0 8.43 6.438 7.5 7.5 0 0 0 6.437-8.43z"/>
    <path d="M398.054 266.205c-4.097-.499-7.854 2.411-8.364 6.522-8.326 67.266-65.801 117.99-133.69 117.99-67.94 0-125.419-50.767-133.703-118.087-.505-4.111-4.255-7.031-8.359-6.528a7.5 7.5 0 0 0-6.527 8.36c9.206 74.827 73.086 131.255 148.59 131.255 75.448 0 139.322-56.381 148.577-131.148a7.502 7.502 0 0 0-6.524-8.364z"/>
    <path d="M360.443 217.928c0-10.135-8.245-18.38-18.38-18.38h-65.38l6.072-14.825c5.46-11.511 3.419-24.963-5.231-34.339-3.902-4.231-9.432-6.359-15.161-5.852-5.732.511-10.794 3.588-13.886 8.442l-.091.147-32.401 53.556c-2.367-2.683-5.811-4.396-9.651-4.416l-31.376-.166h-.069c-3.454 0-6.702 1.34-9.152 3.778a12.886 12.886 0 0 0-3.825 9.2v95.884c0 7.156 5.822 12.978 12.978 12.978h31.376c5.848 0 10.801-3.889 12.419-9.215l25.454 8.678a112.157 112.157 0 0 0 36.265 6.012h45.35c10.135 0 18.38-8.245 18.38-18.379v-6.957c0-2.284-.419-4.473-1.184-6.492 4.915-3.303 8.156-8.914 8.156-15.267v-6.956c0-2.591-.539-5.058-1.51-7.295 4.29-3.368 7.052-8.6 7.052-14.465v-6.957c0-3.009-.727-5.851-2.015-8.36 3.575-3.355 5.81-8.121 5.81-13.398v-6.956zm-156.198 91.008h-27.334v-91.831l27.334.145v91.686zm137.818-80.67h-40.876c-4.143 0-7.5 3.357-7.5 7.5s3.357 7.5 7.5 7.5h37.08a3.384 3.384 0 0 1 3.38 3.379v6.957a3.385 3.385 0 0 1-3.38 3.38h-37.08c-4.143 0-7.5 3.357-7.5 7.5s3.357 7.5 7.5 7.5h31.538a3.385 3.385 0 0 1 3.38 3.38v6.956a3.385 3.385 0 0 1-3.38 3.38h-31.538c-4.143 0-7.5 3.357-7.5 7.5s3.357 7.5 7.5 7.5h24.565a3.385 3.385 0 0 1 3.38 3.38v6.957a3.384 3.384 0 0 1-3.38 3.379h-45.35a97.2 97.2 0 0 1-31.425-5.209l-28.145-9.597a14.503 14.503 0 0 0-1.588-.443v-74.056a14.683 14.683 0 0 0 6.586-5.725l35.333-58.401c.781-1.184 1.918-1.453 2.532-1.508.617-.054 1.813.011 2.803 1.082 4.498 4.877 5.537 11.887 2.647 17.859a7.61 7.61 0 0 0-.189.424l-10.389 25.369a7.501 7.501 0 0 0 6.94 10.342h76.555a3.385 3.385 0 0 1 3.38 3.38v6.955h.001a3.385 3.385 0 0 1-3.38 3.38z"/>
    <path d="M440.24 248.472c-5.422-7.673-6.523-17.442-2.944-26.129 8.172-19.838.188-42.65-18.568-53.063-8.215-4.561-13.444-12.886-13.99-22.265-1.244-21.419-18.334-38.508-39.751-39.752-9.381-.546-17.705-5.775-22.265-13.99-10.414-18.757-33.227-26.737-53.065-18.568-8.685 3.579-18.455 2.479-26.129-2.943-17.521-12.382-41.537-9.675-55.865 6.294-6.274 6.994-15.558 10.24-24.819 8.684-21.158-3.554-41.621 9.307-47.602 29.91-2.618 9.024-9.569 15.975-18.593 18.593-20.603 5.979-33.461 26.444-29.91 47.602 1.556 9.266-1.69 18.545-8.684 24.819-15.969 14.328-18.675 38.344-6.294 55.865 5.422 7.674 6.522 17.442 2.943 26.129-8.172 19.838-.188 42.65 18.568 53.063 8.215 4.561 13.444 12.886 13.99 22.265 1.244 21.419 18.334 38.508 39.751 39.752 9.381.546 17.705 5.775 22.265 13.99 10.414 18.757 33.227 26.737 53.065 18.568 8.685-3.58 18.456-2.478 26.129 2.943a42.128 42.128 0 0 0 24.378 7.752c11.649-.001 23.193-4.801 31.488-14.046 6.274-6.994 15.56-10.241 24.819-8.684 21.154 3.552 41.621-9.307 47.602-29.91 2.618-9.024 9.569-15.975 18.593-18.593 20.603-5.979 33.461-26.444 29.91-47.602-1.556-9.266 1.69-18.545 8.684-24.819 15.969-14.328 18.676-38.344 6.294-55.865zm-16.312 44.699c-10.84 9.725-15.871 24.106-13.46 38.469 2.292 13.65-6.005 26.854-19.299 30.711-13.985 4.06-24.758 14.833-28.818 28.818-3.857 13.295-17.059 21.592-30.711 19.299-14.365-2.412-28.744 2.62-38.469 13.46-9.243 10.305-24.739 12.051-36.043 4.061-7.277-5.143-15.769-7.776-24.349-7.776a42.357 42.357 0 0 0-16.149 3.214c-12.798 5.27-27.517.122-34.237-11.98-7.069-12.732-19.969-20.839-34.509-21.683-13.818-.803-24.844-11.829-25.647-25.648-.845-14.539-8.951-27.439-21.683-34.509-12.101-6.719-17.253-21.437-11.98-34.235 5.548-13.466 3.842-28.605-4.562-40.499-7.989-11.305-6.243-26.8 4.061-36.043 10.84-9.725 15.871-24.106 13.46-38.469-2.292-13.65 6.005-26.854 19.299-30.711 13.985-4.06 24.758-14.833 28.818-28.818 3.857-13.294 17.059-21.598 30.711-19.299 14.368 2.416 28.744-2.62 38.469-13.46 9.244-10.304 24.738-12.05 36.043-4.061 11.893 8.404 27.033 10.109 40.498 4.562 12.799-5.27 27.517-.123 34.237 11.98 7.069 12.732 19.969 20.839 34.509 21.683 13.818.803 24.844 11.829 25.647 25.647v.001c.845 14.539 8.951 27.439 21.683 34.509 12.101 6.719 17.253 21.437 11.98 34.235-5.548 13.466-3.842 28.605 4.562 40.499 7.99 11.305 6.244 26.8-4.061 36.043z"/>
</symbol><symbol id="icon-call-answer" viewBox="0 0 348.077 348.077">
    <path d="M340.273 275.083l-53.755-53.761c-10.707-10.664-28.438-10.34-39.518.744l-27.082 27.076a792.327 792.327 0 0 1-5.344-2.973c-17.102-9.476-40.509-22.464-65.14-47.113-24.704-24.701-37.704-48.144-47.209-65.257-1.003-1.813-1.964-3.561-2.913-5.221l18.176-18.149 8.936-8.947c11.097-11.1 11.403-28.826.721-39.521L73.39 8.194c-10.682-10.68-28.421-10.356-39.518.744l-15.15 15.237.414.411c-5.08 6.482-9.325 13.958-12.484 22.02C3.74 54.28 1.927 61.603 1.098 68.941-6 127.785 20.89 181.564 93.866 254.541c100.875 100.868 182.167 93.248 185.674 92.876 7.638-.913 14.958-2.738 22.397-5.627 7.992-3.122 15.463-7.361 21.941-12.43l.331.294 15.348-15.029c11.074-11.098 11.393-28.83.716-39.542z"/>
</symbol><symbol id="icon-champagne" viewBox="0 0 463.006 463.006">
    <path d="M391.502 200.005a7.5 7.5 0 0 0-7.5 7.5v.5h-19.239l1.833-33h.905a7.5 7.5 0 0 0 0-15H336.37c2.776-25.34 6.27-51.923 10.418-79.175.823-5.408-1.265-10.67-5.151-14.077l3.428-11.937c5.31-1.229 9.822-5.218 11.43-10.817l4.417-15.379c2.358-8.215-2.406-16.817-10.62-19.176L319.537.61c-3.979-1.144-8.166-.667-11.788 1.338s-6.246 5.302-7.389 9.281l-4.417 15.378a15.4 15.4 0 0 0 1.337 11.787 15.553 15.553 0 0 0 2.608 3.456l-3.426 11.929c-5.101.826-9.664 4.178-11.836 9.199-8.854 20.466-39.74 86.178-45.227 97.028H231v-.5c0-8.547-6.953-15.5-15.5-15.5h-64c-8.547 0-15.5 6.953-15.5 15.5v.5H95.5a7.5 7.5 0 0 0 0 15h.905l1.833 33H79.002v-.5a7.5 7.5 0 0 0-15 0v72a7.5 7.5 0 0 0 15 0v-24.5h21.85l10.323 185.803c.691 12.447 10.997 22.197 23.463 22.197h193.729c12.466 0 22.772-9.75 23.463-22.196l10.323-185.804h21.85v24.5a7.5 7.5 0 0 0 15 0v-72a7.502 7.502 0 0 0-7.501-7.501zm-312.5 40v-17h20.072l.945 17H79.002zM310.361 30.747l4.417-15.378a.478.478 0 0 1 .238-.3.49.49 0 0 1 .24-.064c.066 0 .116.015.141.021l30.757 8.834a.475.475 0 0 1 .299.238c.101.182.057.332.043.38l-4.417 15.378a.475.475 0 0 1-.238.299c-.181.1-.33.057-.38.043l-30.757-8.834c-.049-.014-.198-.057-.299-.237s-.058-.33-.044-.38zm19.751 21.799l-2.484 8.651-16.34-4.693 2.484-8.651 16.34 4.693zm-31.718 16.387c.108-.25.393-.417.615-.35l.925.266.004.001.003.001 31.683 9.099c.219.063.376.354.335.623a2002.02 2002.02 0 0 0-7.626 55.159l-30.504 12.721-18.515-26.134a1998.696 1998.696 0 0 0 23.08-51.386zm23.912 81.898c-.351 3.075-.692 6.134-1.022 9.174h-20.979l22.001-9.174zm-54.344-14.944l17.086 24.118h-28.862a1598.36 1598.36 0 0 0 11.776-24.118zm-116.96 31.676c0-.02.003-.038.003-.058s-.003-.038-.003-.058v-7.942a.5.5 0 0 1 .5-.5h64a.5.5 0 0 1 .5.5v7.961l-.002.039.002.039v31.884c0 .026-.004.051-.004.077s.004.051.004.077v153.569l-33 5.5V199.505a7.5 7.5 0 0 0-15 0v142.394l-17-4.25V167.563zm-39.572 7.442h24.572v17h-23.627l-.945-17zm225.421 264.972a8.5 8.5 0 0 1-8.485 8.028H134.637a8.503 8.503 0 0 1-8.487-8.028l-.499-8.972H337.35l-.499 8.972zm1.333-23.972H124.819l-11.611-209h22.794v136.5a7.5 7.5 0 0 0 5.681 7.276l26.319 6.58v10.144a7.5 7.5 0 0 0 8.733 7.398l48-8c.04-.007.078-.018.118-.026.149-.027.295-.061.441-.097.099-.024.198-.048.295-.076.138-.04.274-.086.409-.134.103-.036.205-.072.306-.112.12-.048.236-.102.353-.156.11-.051.219-.101.326-.157.102-.053.2-.112.299-.17.113-.066.227-.132.335-.204.089-.058.174-.121.26-.183.11-.079.22-.158.325-.243.083-.067.162-.138.242-.208.099-.087.199-.174.293-.266.082-.079.158-.163.236-.246.084-.09.169-.18.249-.274.08-.095.155-.194.231-.292.069-.09.138-.178.203-.271.076-.109.146-.222.216-.335.056-.09.113-.179.165-.272.066-.118.126-.239.187-.361.047-.095.095-.19.138-.287a7.62 7.62 0 0 0 .145-.363c.041-.108.083-.215.119-.325.037-.113.069-.229.101-.345.034-.125.069-.25.097-.377.023-.105.041-.211.06-.318.025-.141.048-.283.065-.426.012-.1.019-.201.026-.302.011-.15.021-.3.023-.452.001-.04.006-.079.006-.12v-152.5h118.794l-11.614 209zm12.445-224H231.002v-17h120.572l-.945 17zm33.372 48h-21.016l.944-17h20.072v17z"/>
</symbol><symbol id="icon-chevron-left" viewBox="0 0 320 512">
    <path d="M34.52 239.03L228.87 44.69c9.37-9.37 24.57-9.37 33.94 0l22.67 22.67c9.36 9.36 9.37 24.52.04 33.9L131.49 256l154.02 154.75c9.34 9.38 9.32 24.54-.04 33.9l-22.67 22.67c-9.37 9.37-24.57 9.37-33.94 0L34.52 272.97c-9.37-9.37-9.37-24.57 0-33.94z"/>
</symbol><symbol id="icon-chevron-right" viewBox="0 0 320 512">
    <path d="M285.476 272.971L91.132 467.314c-9.373 9.373-24.569 9.373-33.941 0l-22.667-22.667c-9.357-9.357-9.375-24.522-.04-33.901L188.505 256 34.484 101.255c-9.335-9.379-9.317-24.544.04-33.901l22.667-22.667c9.373-9.373 24.569-9.373 33.941 0L285.475 239.03c9.373 9.372 9.373 24.568.001 33.941z"/>
</symbol><symbol id="icon-discount" viewBox="0 0 512 512">
    <path d="M445.561 449.144l-42.071-72.87c-2.761-4.782-8.879-6.424-13.661-3.66-4.783 2.762-6.423 8.878-3.66 13.661l30.042 52.033-42.351-11.235c-5.325-1.41-10.784 1.744-12.219 7.06l-11.349 42.016-65.132-112.812c11.991 2.586 24.842-1.896 32.482-11.948l11.679-15.37a12.145 12.145 0 0 1 9.083-4.79l19.167-.952c15.177-.754 27.561-11.742 30.115-26.723l3.292-19.315a12.15 12.15 0 0 1 5.782-8.416l16.731-9.933c12.984-7.709 18.825-23.133 14.202-37.509l-6.04-18.782a12.151 12.151 0 0 1 1.22-10.101l10.322-16.775c7.901-12.839 5.918-29.195-4.821-39.775l-13.96-13.752a12.151 12.151 0 0 1-3.597-9.531l1.398-19.643c1.076-15.107-8.301-28.712-22.802-33.083l-18.485-5.573a12.144 12.144 0 0 1-7.651-6.811l-7.737-17.849c-5.968-13.767-20.987-21.669-35.709-18.773l-18.757 3.681a12.138 12.138 0 0 1-9.985-2.472L276.156 7.089c-11.709-9.452-28.706-9.453-40.416.001l-14.929 12.053a12.143 12.143 0 0 1-9.986 2.473l-18.758-3.681c-14.723-2.892-29.74 5.004-35.708 18.769l-7.742 17.856a12.148 12.148 0 0 1-7.65 6.809l-18.482 5.573c-14.501 4.371-23.877 17.977-22.801 33.083l1.398 19.643a12.147 12.147 0 0 1-3.598 9.531L83.525 142.95c-10.74 10.579-12.723 26.936-4.823 39.775l10.322 16.776a12.148 12.148 0 0 1 1.22 10.1l-6.04 18.782c-4.622 14.375 1.217 29.8 14.202 37.509l16.731 9.933a12.152 12.152 0 0 1 5.783 8.417l3.292 19.315c1.547 9.076 6.707 16.681 13.904 21.438L66.438 449.144a10.003 10.003 0 0 0 .719 11.079 10.005 10.005 0 0 0 10.506 3.588l55.983-14.852 15.031 55.646a10.004 10.004 0 0 0 9.657 7.394c3.538 0 6.857-1.88 8.658-5l65.463-113.386c2.762-4.783 1.123-10.899-3.66-13.661-4.782-2.761-10.9-1.123-13.661 3.66l-53.425 92.536-11.35-42.016c-1.436-5.316-6.896-8.472-12.219-7.06l-42.351 11.235 62.266-107.847 15.435.767a12.147 12.147 0 0 1 9.082 4.789l11.684 15.372c6.215 8.177 15.877 12.668 25.72 12.668 4.57 0 9.181-.969 13.501-2.986l17.323-8.09a12.142 12.142 0 0 1 4.638-1.118l89.568 155.135a10.001 10.001 0 0 0 18.315-2.394l15.031-55.646 55.983 14.852a9.994 9.994 0 0 0 10.506-3.588 9.994 9.994 0 0 0 .72-11.077zM242.338 334.859l-17.323 8.091c-5.155 2.405-11.393.866-14.834-3.661l-11.685-15.373a32.095 32.095 0 0 0-24.013-12.662l-19.163-.954c-5.74-.285-10.423-4.441-11.389-10.107l-3.292-19.314a32.119 32.119 0 0 0-15.289-22.255l-16.731-9.933a12.109 12.109 0 0 1-5.372-14.187l6.04-18.781a32.133 32.133 0 0 0-3.227-26.706l-10.322-16.775a12.11 12.11 0 0 1 1.824-15.043l13.959-13.752a32.118 32.118 0 0 0 9.512-25.2l-1.398-19.644c-.407-5.714 3.139-10.858 8.624-12.512l18.482-5.573a32.103 32.103 0 0 0 20.228-18.002l7.742-17.856c1.945-4.485 6.431-7.322 11.197-7.322.765 0 1.538.073 2.308.224l18.757 3.681a32.098 32.098 0 0 0 26.404-6.537l14.929-12.054c4.428-3.576 10.857-3.575 15.285-.001l14.931 12.056a32.091 32.091 0 0 0 26.401 6.536l18.756-3.681c5.566-1.087 11.249 1.894 13.505 7.102l7.737 17.849a32.104 32.104 0 0 0 20.23 18.006l18.485 5.573a12.1 12.1 0 0 1 8.624 12.513l-1.398 19.643a32.12 32.12 0 0 0 9.512 25.2l13.96 13.752a12.11 12.11 0 0 1 1.824 15.043l-10.322 16.774a32.13 32.13 0 0 0-3.227 26.706l6.04 18.783a12.105 12.105 0 0 1-5.372 14.186l-16.731 9.933a32.118 32.118 0 0 0-15.288 22.254l-3.292 19.315c-.966 5.666-5.65 9.822-11.389 10.107l-19.166.952a32.095 32.095 0 0 0-24.016 12.664l-11.679 15.37c-3.442 4.528-9.682 6.067-14.834 3.662l-17.322-8.09a32.1 32.1 0 0 0-27.222 0z"/>
    <path d="M255.948 58.742c-67.977 0-123.28 55.303-123.28 123.281s55.303 123.281 123.28 123.281S379.228 250 379.228 182.023c0-67.978-55.303-123.281-123.28-123.281zm0 226.56c-56.947 0-103.278-46.331-103.278-103.279S199 78.744 255.948 78.744s103.278 46.33 103.278 103.279c0 56.948-46.33 103.279-103.278 103.279z"/>
    <path d="M283.124 128.815c-4.809-2.715-10.91-1.018-13.625 3.792l-56.397 99.9c-2.715 4.81-1.018 10.91 3.792 13.625a9.998 9.998 0 0 0 13.625-3.792l56.397-99.9c2.715-4.809 1.017-10.91-3.792-13.625z"/>
    <path d="M292.707 191.465c-17.082 0-30.979 13.897-30.979 30.979s13.897 30.979 30.979 30.979 30.979-13.897 30.979-30.979-13.898-30.979-30.979-30.979zm-.001 41.956c-6.053 0-10.977-4.924-10.977-10.977s4.926-10.977 10.977-10.977c6.053 0 10.977 4.924 10.977 10.977 0 6.052-4.925 10.977-10.977 10.977z"/>
    <path d="M219.407 110.623c-17.082 0-30.979 13.897-30.979 30.979s13.897 30.979 30.979 30.979 30.979-13.897 30.979-30.979-13.898-30.979-30.979-30.979zm0 41.956c-6.053-.001-10.977-4.925-10.977-10.977 0-6.053 4.924-10.977 10.977-10.977s10.977 4.924 10.977 10.977-4.925 10.977-10.977 10.977z"/>
</symbol><symbol id="icon-facebook" viewBox="0 0 10 19">
    <title>
        facebook
    </title>
    <path d="M9.766.157v2.946H8.014c-.64 0-1.071.134-1.295.402-.223.268-.335.67-.335 1.205v2.11h3.27l-.435 3.303H6.384v8.471H2.97v-8.47H.123V6.82H2.97V4.387c0-1.384.387-2.457 1.161-3.22C4.904.404 5.934.023 7.222.023c1.093 0 1.941.045 2.544.134z" fill-rule="evenodd"/>
</symbol><symbol id="icon-first-verand" viewBox="0 0 512 512">
    <path d="M428.439 492.394l-16.89-86.435c-1.505-7.704-8.295-13.296-16.146-13.296H327.5l-11.763-27.352h34.624c6.662 0 12.082-5.42 12.082-12.082v-48.525c0-6.662-5.42-12.082-12.082-12.082H306.43v-25.92a7.502 7.502 0 0 0-15.004 0v28.842c0 6.661 5.42 12.081 12.081 12.081h43.932v42.681H168.725v-42.681h53.27c6.662 0 12.082-5.42 12.082-12.081V107.869c0-4.73-2.659-8.92-6.94-10.933-4.279-2.012-9.203-1.39-12.847 1.627l-38.321 31.729-28.293-36.208 33.019-27.709a7.502 7.502 0 0 0-9.645-11.493l-35.181 29.524a12.036 12.036 0 0 0-1.752 16.692l31.882 40.801a11.986 11.986 0 0 0 8.218 4.571 11.977 11.977 0 0 0 9.006-2.705l35.851-29.684v178.54h-53.27c-6.662 0-12.082 5.42-12.082 12.082v48.525c0 6.662 5.42 12.082 12.082 12.082h30.46L184.5 392.663h-67.903c-7.85 0-14.64 5.592-16.146 13.296l-16.89 86.435a16.397 16.397 0 0 0 3.447 13.613A16.396 16.396 0 0 0 99.707 512h312.586c4.934 0 9.562-2.184 12.699-5.993a16.4 16.4 0 0 0 3.447-13.613zM212.595 365.31h86.809l11.763 27.352H200.833l11.762-27.352zM413.41 496.469c-.198.24-.552.527-1.117.527H99.707c-.565 0-.919-.287-1.117-.527a1.406 1.406 0 0 1-.303-1.198l16.89-86.435a1.45 1.45 0 0 1 1.42-1.17H395.403c.691 0 1.288.492 1.42 1.17l16.89 86.434c.109.555-.105.959-.303 1.199z"/>
    <path d="M390.659 467.328l-6.641-33.984a10.424 10.424 0 0 0-10.211-8.41H138.194c-4.964 0-9.258 3.536-10.212 8.409l-6.641 33.985a10.37 10.37 0 0 0 2.179 8.609 10.37 10.37 0 0 0 8.033 3.791h248.894c3.12 0 6.048-1.382 8.032-3.79a10.375 10.375 0 0 0 2.18-8.61zm-253.522-2.603l4.843-24.787h228.038l4.843 24.787H137.137z"/>
    <path d="M294.349 0h-53.505a12.105 12.105 0 0 0-7.767 2.827L198.291 32.02a7.502 7.502 0 0 0 9.645 11.493l33.972-28.509h49.519v215.915a7.502 7.502 0 0 0 15.004 0V12.082C306.43 5.42 301.01 0 294.349 0z"/>
</symbol><symbol id="icon-first" viewBox="0 0 512.001 512.001">
    <path d="M397.667 173.7c-4.557-34.01-21.31-65.298-47.175-88.102C324.39 62.586 290.833 49.913 256 49.913c-34.827 0-68.38 12.669-94.479 35.674-25.863 22.796-42.619 54.077-47.183 88.079a7.5 7.5 0 0 0 6.435 8.43c4.097.558 7.879-2.33 8.43-6.435C137.678 112.523 192.188 64.912 256 64.912c63.827 0 118.339 47.625 126.801 110.78a7.5 7.5 0 0 0 8.429 6.437 7.5 7.5 0 0 0 6.437-8.429z"/>
    <path d="M391.329 202.217a7.497 7.497 0 0 0-8.364 6.521C375.058 272.62 320.475 320.793 256 320.793c-64.522 0-119.11-48.212-126.976-112.146a7.495 7.495 0 0 0-8.359-6.527 7.499 7.499 0 0 0-6.527 8.359c8.79 71.44 69.777 125.313 141.863 125.313 72.032 0 133.014-53.829 141.849-125.211a7.5 7.5 0 0 0-6.521-8.364z"/>
    <path d="M299.396 240.148h-16.81V111.509c0-5.329-4.335-9.664-9.664-9.664h-25.288a9.675 9.675 0 0 0-6.212 2.261l-45.944 38.556a9.627 9.627 0 0 0-1.402 13.353l15.068 19.284a9.722 9.722 0 0 0 6.573 3.657 9.711 9.711 0 0 0 7.204-2.164l10.469-8.668v72.023h-21.223v.001c-5.329 0-9.664 4.336-9.664 9.664v22.934c0 5.329 4.335 9.664 9.664 9.664h87.229c5.329 0 9.664-4.336 9.664-9.664v-22.934c0-5.329-4.335-9.664-9.664-9.664zm-5.334 27.265h-76.559v-12.265h21.223c5.329 0 9.664-4.335 9.664-9.664v-88.702c-.001-3.784-2.127-7.135-5.551-8.745-3.425-1.611-7.361-1.113-10.277 1.301l-14.979 12.402-8.517-10.899 40.51-33.996h18.012v128.639c0 5.329 4.335 9.664 9.664 9.664h16.81v12.265z"/>
    <path d="M459.383 429.1l-67.57-105.693A32.283 32.283 0 0 0 411 311.281a32.275 32.275 0 0 0 5.958-25.321c-1.404-7.518 2.397-15.151 9.243-18.562a32.275 32.275 0 0 0 16.616-20.013 32.28 32.28 0 0 0-3.591-25.764c-4.025-6.503-3.238-14.993 1.913-20.646a32.276 32.276 0 0 0 8.264-24.664 32.277 32.277 0 0 0-12.656-22.727c-6.103-4.61-8.436-12.811-5.674-19.944a32.28 32.28 0 0 0-1.204-25.985 32.278 32.278 0 0 0-20.011-16.62c-7.356-2.095-12.495-8.899-12.496-16.547-.002-9.035-3.833-17.708-10.51-23.795s-15.668-9.1-24.663-8.269c-7.618.706-14.865-3.785-17.63-10.916a32.278 32.278 0 0 0-18.396-18.392 32.277 32.277 0 0 0-25.984 1.199c-6.847 3.407-15.23 1.841-20.383-3.81A32.272 32.272 0 0 0 256 0a32.28 32.28 0 0 0-23.797 10.504c-5.153 5.65-13.537 7.218-20.383 3.81a32.277 32.277 0 0 0-25.984-1.199 32.278 32.278 0 0 0-18.396 18.392c-2.764 7.131-10.023 11.62-17.629 10.916a32.269 32.269 0 0 0-24.663 8.269 32.279 32.279 0 0 0-10.51 23.795c-.001 7.648-5.14 14.453-12.496 16.547a32.275 32.275 0 0 0-20.011 16.62 32.28 32.28 0 0 0-1.204 25.985c2.761 7.132.428 15.334-5.674 19.944a32.28 32.28 0 0 0-12.656 22.727 32.28 32.28 0 0 0 8.264 24.664c5.151 5.653 5.938 14.143 1.913 20.647a32.28 32.28 0 0 0-3.591 25.764 32.275 32.275 0 0 0 16.616 20.013c6.846 3.411 10.647 11.044 9.243 18.562A32.274 32.274 0 0 0 101 311.281a32.288 32.288 0 0 0 19.187 12.126L52.617 429.1a11.95 11.95 0 0 0-.152 12.71 11.959 11.959 0 0 0 11.337 5.746l65.948-5.803 22.413 62.293a11.947 11.947 0 0 0 9.974 7.878c.459.051.916.077 1.37.077 4.079 0 7.863-2.049 10.101-5.549L256 377.574l82.391 128.876c2.238 3.501 6.021 5.549 10.101 5.549.454 0 .912-.025 1.371-.077a11.948 11.948 0 0 0 9.974-7.879l22.414-62.293 65.947 5.803c4.601.403 8.945-1.797 11.338-5.745a11.949 11.949 0 0 0-.153-12.708zm-390.872 2.984l65.878-103.047c2.344 2.383 4.016 5.439 4.659 8.873a32.27 32.27 0 0 0 9 16.946l-46.915 74.357-32.622 2.871zm77.425 10.352l-2.849-7.919a12.029 12.029 0 0 0-12.369-7.907l-10.808.951 40.961-64.921a32.264 32.264 0 0 0 18.643.324c5.19-1.476 10.67-.368 14.865 2.691l-48.443 76.781zm18.293 50.841l-11.852-32.941 52.314-82.915a32.263 32.263 0 0 0 15.619 7.733c4.423.826 8.933.702 13.236-.302l-69.317 108.425zm96.444-132.164a7.564 7.564 0 0 0-1.462-.174 32.508 32.508 0 0 0-3.211-.178c-1.072 0-2.141.072-3.209.178-.495.01-.986.068-1.468.174-5.236.76-10.321 2.79-14.728 6.117-3.909 2.95-8.715 4.078-13.53 3.18-4.815-.9-8.887-3.689-11.467-7.854a31.86 31.86 0 0 0-1.761-2.532 6.818 6.818 0 0 0-.295-.365c-7.979-10.15-21.515-14.709-34.132-11.122-4.711 1.34-9.6.658-13.765-1.921s-6.955-6.651-7.856-11.466c-1.921-10.265-8.729-18.744-17.8-23.104a7.487 7.487 0 0 0-1.436-.649 31.85 31.85 0 0 0-9.444-2.392c-4.877-.453-9.189-2.855-12.141-6.764-2.952-3.909-4.083-8.714-3.183-13.53 2.627-14.071-4.486-28.356-17.299-34.739-4.384-2.184-7.537-5.982-8.878-10.693-1.34-4.712-.659-9.601 1.919-13.766 7.534-12.171 6.061-28.062-3.581-38.643-3.3-3.62-4.867-8.301-4.416-13.178.452-4.878 2.853-9.19 6.762-12.143 11.421-8.629 15.789-23.978 10.62-37.327-1.769-4.568-1.54-9.498.644-13.883 2.183-4.385 5.98-7.539 10.692-8.88 13.767-3.921 23.384-16.656 23.387-30.97.001-4.899 1.995-9.413 5.615-12.714 3.62-3.3 8.3-4.871 13.178-4.418 14.259 1.321 27.821-7.083 32.995-20.43 1.771-4.567 5.262-8.058 9.83-9.827 4.567-1.769 9.499-1.542 13.883.641 12.816 6.377 28.502 3.445 38.148-7.131 3.301-3.619 7.816-5.612 12.715-5.612s9.414 1.993 12.715 5.612c9.645 10.576 25.333 13.508 38.148 7.131 4.385-2.182 9.315-2.41 13.883-.641 4.568 1.769 8.059 5.26 9.829 9.827 5.174 13.346 18.734 21.749 32.996 20.43 4.875-.453 9.556 1.118 13.177 4.418 3.62 3.301 5.614 7.815 5.615 12.714.002 14.314 9.619 27.049 23.387 30.97 4.711 1.341 8.508 4.495 10.691 8.88 2.184 4.385 2.412 9.315.643 13.883-5.169 13.349-.801 28.698 10.62 37.327 3.909 2.953 6.31 7.265 6.762 12.143.452 4.878-1.116 9.558-4.416 13.178-9.642 10.581-11.114 26.471-3.581 38.642 2.578 4.166 3.259 9.054 1.918 13.766-1.34 4.712-4.493 8.509-8.878 10.693-12.812 6.383-19.925 20.669-17.298 34.739.899 4.816-.231 9.62-3.183 13.53-2.952 3.909-7.264 6.311-12.142 6.764a31.876 31.876 0 0 0-9.452 2.396 7.496 7.496 0 0 0-1.425.644c-9.072 4.359-15.882 12.839-17.803 23.105-.901 4.815-3.691 8.887-7.856 11.466-4.165 2.579-9.055 3.26-13.765 1.922-12.62-3.589-26.158.973-34.136 11.127-.1.114-.192.233-.284.352a31.866 31.866 0 0 0-1.767 2.539c-2.579 4.165-6.652 6.954-11.467 7.854-4.813.898-9.62-.229-13.53-3.18-4.405-3.327-9.489-5.356-14.727-6.116zm87.098 132.164l-69.325-108.439c2.404.562 4.869.861 7.35.861 1.964 0 3.938-.18 5.894-.545a32.258 32.258 0 0 0 15.618-7.732l52.315 82.917-11.852 32.938zm33.511-66.667a12.027 12.027 0 0 0-12.369 7.908l-2.85 7.922-48.444-76.782c4.196-3.06 9.676-4.169 14.868-2.692a32.275 32.275 0 0 0 18.641-.324l40.959 64.919-10.805-.951zm29.582 2.603l-46.913-74.355a32.275 32.275 0 0 0 9.002-16.948c.643-3.434 2.314-6.49 4.658-8.872l65.878 103.046-32.625-2.871z"/>
</symbol><symbol id="icon-karaoke" viewBox="0 0 469.981 469.981">
    <circle cx="425.789" cy="141.268" r="7.5"/>
    <circle cx="425.789" cy="98.841" r="7.5"/>
    <path d="M446.337 193.837c15.297-17.693 23.644-40.035 23.644-63.66 0-26.044-10.142-50.528-28.558-68.943-18.415-18.415-42.899-28.557-68.942-28.557-23.621 0-45.959 8.343-63.649 23.634l-2.008-1.978a7.5 7.5 0 0 0-10.606.079 7.5 7.5 0 0 0 .079 10.606l1.961 1.932c-15.061 17.623-23.276 39.792-23.276 63.226 0 3.017.142 6.011.411 8.979L67.264 371.771a7.5 7.5 0 0 0 .286 10.305l21.213 21.213-4.265 4.265c-15.878 15.88-41.716 15.879-57.596.001-15.879-15.88-15.879-41.718 0-57.597l140.865-140.865c21.728-21.729 21.728-57.082 0-78.811-21.728-21.727-57.082-21.727-78.809 0L2.177 217.063l10.606 10.607 86.781-86.781c15.88-15.878 41.718-15.879 57.596 0 15.879 15.879 15.879 41.717 0 57.596L16.296 339.351c-21.728 21.728-21.728 57.081 0 78.81C27.16 429.024 41.43 434.456 55.7 434.456s28.541-5.432 39.405-16.296l4.264-4.265 21.214 21.213a7.48 7.48 0 0 0 5.304 2.196 7.477 7.477 0 0 0 5-1.911L330.38 256.9l33.12-29.634a99.5 99.5 0 0 0 8.981.411c23.429 0 45.594-8.212 63.216-23.268l1.969 1.979a7.474 7.474 0 0 0 5.315 2.209 7.474 7.474 0 0 0 5.291-2.185 7.498 7.498 0 0 0 .024-10.606l-1.959-1.969zM126.173 419.484l-21.493-21.492-21.506-21.506 165.965-185.49c6.617 13.443 15.364 25.656 26.115 36.409 10.753 10.751 22.965 19.498 36.409 26.115l-185.49 165.964zm197.667-176.86c-14.177-6.118-26.939-14.786-37.98-25.826-11.041-11.042-19.709-23.804-25.827-37.98l18.878-21.099c4.534 15.484 12.9 29.674 24.627 41.402 11.727 11.727 25.916 20.092 41.4 24.626l-21.098 18.877zm48.641-29.947c-22.037-.001-42.754-8.582-58.336-24.164s-24.164-36.3-24.164-58.336c0-19.461 6.702-37.887 18.999-52.662l15.811 15.578a7.476 7.476 0 0 0 5.263 2.157 7.5 7.5 0 0 0 5.264-12.842L319.57 66.891c14.817-12.432 33.339-19.214 52.911-19.214 22.036 0 42.754 8.581 58.336 24.164 15.583 15.581 24.164 36.299 24.164 58.336 0 19.603-6.806 38.152-19.275 52.981l-79.123-79.485a7.496 7.496 0 0 0-10.606-.024 7.498 7.498 0 0 0-.024 10.606l79.121 79.483c-14.764 12.259-33.163 18.939-52.593 18.939z"/>
</symbol><symbol id="icon-menu" viewBox="0 0 479.997 479.997">
    <path d="M399.998 79.997h-40v-72A8 8 0 0 0 349.742.325l-272 80c-.16 0-.28.16-.44.216a8.089 8.089 0 0 0-1.176.592 8.021 8.021 0 0 0-1.36.92c-.31.288-.599.598-.864.928a8.396 8.396 0 0 0-.92 1.368 8.26 8.26 0 0 0-.48 1.16 7.506 7.506 0 0 0-.352 1.736c0 .264-.152.488-.152.752v384a8 8 0 0 0 8 8h320a8 8 0 0 0 8-8v-384a8 8 0 0 0-8-8zm-56-61.312v61.312H135.55l208.448-61.312zm48 445.312h-304v-368h304v368z"/>
    <path d="M183.996 127.999a8 8 0 0 0-6.854 3.878l-17.144 28.568-17.144-28.568a8 8 0 0 0-14.857 4.12v64a8 8 0 0 0 16 0v-35.12l9.144 15.24a8.312 8.312 0 0 0 13.712 0l9.144-15.24v35.12a8 8 0 0 0 16 0v-64a7.998 7.998 0 0 0-8.001-7.998z"/>
    <path d="M231.998 175.997a8 8 0 0 0 0-16h-16v-16h16a8 8 0 0 0 0-16h-24a8 8 0 0 0-8 8v64a8 8 0 0 0 8 8h24a8 8 0 0 0 0-16h-16v-16h16z"/>
    <path d="M287.998 127.997a8 8 0 0 0-8 8v30.112l-16.8-33.688a8 8 0 0 0-15.2 3.576v64a8 8 0 0 0 16 0v-30.112l16.8 33.688a8 8 0 0 0 15.2-3.576v-64a8 8 0 0 0-8-8z"/>
    <path d="M343.998 127.997a8 8 0 0 0-8 8v48a8 8 0 0 1-16 0v-48a8 8 0 0 0-16 0v48c0 13.255 10.745 24 24 24s24-10.745 24-24v-48a8 8 0 0 0-8-8z"/>
    <path d="M367.998 279.997h-256a8 8 0 0 0 0 16h256a8 8 0 0 0 0-16z"/>
    <path d="M367.998 327.997h-256a8 8 0 0 0 0 16h256a8 8 0 0 0 0-16z"/>
    <path d="M367.998 375.997h-256a8 8 0 0 0 0 16h256a8 8 0 0 0 0-16z"/>
</symbol><symbol id="icon-tripadvisor" viewBox="0 0 98.566 98.566">
    <path d="M60.401 20.996c2.751.389 5.445 1.08 8.107 1.898a55.476 55.476 0 0 1 13.156 5.998c.287.178.67.291 1.008.291 4.844.02 9.686.013 14.526.017.39 0 .778.041 1.167.063 0 .095.014.135-.002.157-.226.348-.455.691-.682 1.038-1.643 2.52-3.047 5.156-3.876 8.07-.09.313-.109.575.103.882 4.312 6.192 5.688 12.99 3.886 20.318-1.58 6.427-5.264 11.438-10.862 14.986-4.001 2.537-8.421 3.745-13.143 3.771a22.938 22.938 0 0 1-5.896-.757c-4.722-1.225-8.77-3.579-12.106-7.144-.44-.468-.854-.957-1.323-1.486-1.764 2.629-3.5 5.215-5.278 7.869l-5.191-7.758c-.118.062-.152.069-.175.091a.805.805 0 0 0-.103.108c-4.035 4.765-9.111 7.686-15.295 8.663-3.44.545-6.847.349-10.188-.572-4.735-1.301-8.759-3.799-12.01-7.485C3.047 66.41 1.071 62.226.329 57.469c-.849-4.44.185-8.721.443-9.76.748-3.02 2.052-5.793 3.842-8.343.126-.181.17-.501.11-.717-.73-2.677-1.988-5.112-3.461-7.444-.374-.593-.822-1.142-1.236-1.711v-.198c.083.01.165.026.246.026 4.956.002 9.911.004 14.867-.006.216 0 .456-.089.64-.207 3.482-2.234 7.192-4.004 11.09-5.382a60.266 60.266 0 0 1 8.608-2.333 68.96 68.96 0 0 1 8.562-1.124c7.019-.54 12.629.203 16.361.726zm-6.213 32.731c0 10.883 8.83 19.774 19.674 19.732 10.885-.039 19.675-8.68 19.667-19.683-.008-11.339-9.206-19.863-20.089-19.642-10.744.223-19.154 8.883-19.252 19.593zM24.677 34.059c-10.586-.092-19.816 8.743-19.631 19.997.172 10.495 8.822 19.392 19.851 19.297 10.784-.092 19.452-8.898 19.472-19.562a19.626 19.626 0 0 0-19.692-19.732zm.976-5.134c5.98.365 11.233 2.449 15.671 6.485 4.429 4.028 7.024 9.053 7.967 14.962.97-5.839 3.497-10.817 7.843-14.805 4.353-3.992 9.536-6.087 15.418-6.53-6.98-3.103-14.34-4.421-21.916-4.567-8.61-.169-16.985 1.1-24.983 4.455z"/>
    <path d="M73.822 41.311c6.735-.011 12.19 5.415 12.19 12.143 0 6.754-5.362 11.975-11.688 12.216-7.065.271-12.718-5.358-12.716-12.186.006-6.906 5.699-12.287 12.214-12.173zm7.944 12.173c-.003-4.39-3.552-7.958-7.912-7.958-4.41 0-8 3.549-8.018 7.926-.016 4.358 3.592 7.984 7.961 7.996 4.376.017 7.971-3.582 7.969-7.964z"/>
    <path d="M24.417 41.311c6.731-.007 12.194 5.429 12.177 12.156-.019 6.809-5.386 11.916-11.601 12.199-7.093.324-12.816-5.33-12.803-12.195.014-6.955 5.746-12.276 12.227-12.16zm7.935 12.146c-.013-4.417-3.585-7.938-8.044-7.93-4.301.008-7.905 3.638-7.895 7.955.011 4.367 3.611 7.958 7.992 7.97 4.354.01 7.958-3.616 7.947-7.995z"/>
    <path d="M73.828 49.443c2.232-.002 4.062 1.829 4.041 4.048-.022 2.224-1.821 4.026-4.016 4.027-2.26 0-4.077-1.786-4.072-3.999.004-2.296 1.769-4.074 4.047-4.076z"/>
    <path d="M24.396 49.407a4.075 4.075 0 0 1 4.096 4.067c.009 2.24-1.829 4.079-4.084 4.084-2.309.005-4.09-1.779-4.088-4.1 0-2.279 1.777-4.048 4.076-4.051z"/>
</symbol><symbol id="icon-user" viewBox="0 0 448 512">
    <path d="M224 256c70.7 0 128-57.3 128-128S294.7 0 224 0 96 57.3 96 128s57.3 128 128 128zm89.6 32h-16.7c-22.2 10.2-46.9 16-72.9 16s-50.6-5.8-72.9-16h-16.7C60.2 288 0 348.2 0 422.4V464c0 26.5 21.5 48 48 48h352c26.5 0 48-21.5 48-48v-41.6c0-74.2-60.2-134.4-134.4-134.4z"/>
</symbol><symbol id="icon-users" viewBox="0 0 548.169 548.169">
    <path d="M109.634 164.452c20.179 0 37.402-7.135 51.674-21.411 14.277-14.275 21.416-31.503 21.416-51.678 0-20.173-7.139-37.401-21.416-51.678-14.272-14.275-31.496-21.414-51.674-21.414-20.177 0-37.401 7.139-51.676 21.414-14.274 14.277-21.413 31.501-21.413 51.678 0 20.179 7.139 37.403 21.413 51.678 14.275 14.272 31.499 21.411 51.676 21.411z"/>
    <path d="M196.569 278.519c21.413 21.406 47.248 32.114 77.516 32.114 30.269 0 56.103-10.708 77.515-32.114 21.409-21.42 32.117-47.258 32.117-77.52 0-30.264-10.708-56.101-32.117-77.515-21.412-21.414-47.246-32.121-77.515-32.121-30.268 0-56.105 10.709-77.516 32.121-21.411 21.411-32.12 47.248-32.12 77.515s10.709 56.103 32.12 77.52z"/>
    <path d="M438.543 164.452c20.17 0 37.397-7.135 51.671-21.411 14.274-14.275 21.409-31.503 21.409-51.678 0-20.173-7.135-37.401-21.409-51.678-14.273-14.275-31.501-21.414-51.671-21.414-20.184 0-37.407 7.139-51.682 21.414-14.271 14.277-21.409 31.501-21.409 51.678 0 20.179 7.139 37.403 21.409 51.678 14.275 14.272 31.498 21.411 51.682 21.411z"/>
    <path d="M512.763 164.456c-1.136 0-5.276 1.999-12.415 5.996-7.132 3.999-16.416 8.044-27.833 12.137-11.416 4.089-22.747 6.136-33.972 6.136-12.758 0-25.406-2.187-37.973-6.567.945 7.039 1.424 13.322 1.424 18.842 0 26.457-7.71 50.819-23.134 73.089 30.841.955 56.056 13.134 75.668 36.552h38.256c15.605 0 28.739-3.863 39.396-11.57 10.657-7.703 15.989-18.986 15.989-33.83.003-67.194-11.793-100.789-35.406-100.785z"/>
    <path d="M470.096 395.284c-1.999-11.136-4.524-21.464-7.57-30.978-3.046-9.521-7.139-18.794-12.271-27.836-5.141-9.034-11.044-16.748-17.706-23.127-6.667-6.379-14.805-11.464-24.414-15.276-9.609-3.806-20.225-5.708-31.833-5.708-1.906 0-5.996 2.047-12.278 6.14a3489 3489 0 0 0-20.841 13.702c-7.615 5.037-17.789 9.609-30.55 13.702-12.762 4.093-25.608 6.14-38.544 6.14-12.941 0-25.791-2.047-38.544-6.14-12.756-4.093-22.936-8.665-30.55-13.702a3554.86 3554.86 0 0 0-20.841-13.702c-6.283-4.093-10.373-6.14-12.279-6.14-11.609 0-22.22 1.902-31.833 5.708-9.613 3.812-17.749 8.897-24.41 15.276-6.667 6.372-12.562 14.093-17.705 23.127-5.137 9.042-9.229 18.315-12.275 27.836-3.045 9.514-5.564 19.842-7.566 30.978-2 11.136-3.331 21.505-3.997 31.121a427.043 427.043 0 0 0-.999 29.554c0 22.836 6.945 40.874 20.839 54.098 13.899 13.223 32.363 19.842 55.389 19.842h249.535c23.028 0 41.49-6.619 55.392-19.842 13.894-13.224 20.841-31.262 20.841-54.098 0-10.088-.335-19.938-.992-29.554-.676-9.616-2.007-19.986-3.998-31.121z"/>
    <path d="M169.303 274.088c-15.418-22.27-23.125-46.632-23.122-73.089 0-5.52.477-11.799 1.427-18.842-12.564 4.377-25.221 6.567-37.974 6.567-11.23 0-22.552-2.046-33.974-6.136-11.417-4.093-20.699-8.138-27.834-12.137-7.138-3.997-11.281-5.996-12.422-5.996C11.801 164.456 0 198.051 0 265.24c0 14.844 5.33 26.127 15.987 33.83 10.66 7.707 23.794 11.563 39.397 11.563h38.26c19.607-23.411 44.823-35.591 75.659-36.545z"/>
</symbol><symbol id="icon-winner" viewBox="0 0 512.001 512.001">
    <path d="M258.475 383.641c-.799 0-1.527.146-2.108.509l-9.598 5.816c-1.453.873-2.108 2.327-2.108 3.854 0 2.254 1.455 4.508 3.563 4.508.509 0 1.163-.145 1.817-.581l2.109-1.309h.001v37.008c0 2.326 2.835 3.49 5.671 3.49 2.835 0 5.67-1.164 5.67-3.49v-46.243c0-2.181-2.69-3.562-5.017-3.562z"/>
    <path d="M309.975 360.258H202.03c-6.203 0-11.25 5.047-11.25 11.25v77.506c0 6.203 5.047 11.249 11.25 11.249h107.945c6.203 0 11.25-5.046 11.25-11.249v-77.506c0-6.203-5.047-11.25-11.25-11.25zm-3.757 84.999H205.786v-69.992h100.432v69.992z"/>
    <path d="M412.197 26.017a13.169 13.169 0 0 0-9.304-3.833 34.361 34.361 0 0 0-28.197 14.853l-4.321 6.267a16.672 16.672 0 0 1-13.728 7.208h-4.409V39.324c6.446-.506 11.539-5.901 11.539-12.474V12.525C363.778 5.619 358.159 0 351.253 0H160.86c-6.905 0-12.524 5.619-12.524 12.525V26.85c0 6.573 5.093 11.968 11.538 12.474v11.188h-4.518a16.674 16.674 0 0 1-13.728-7.208l-4.321-6.268c-6.394-9.273-16.935-14.825-28.156-14.852h-.101a13.179 13.179 0 0 0-9.247 3.835 13.049 13.049 0 0 0-3.854 9.294V67.44c0 23.683 5.213 41.008 15.938 52.964 9.448 10.535 22.117 15.68 33.297 20.22 12.986 5.274 25.252 10.255 31.206 22.521 2.196 4.526 1.622 8.891-1.618 12.29-2.646 2.777-6.596 4.435-10.564 4.435-1.684 0-3.245-.301-4.636-.895-6.189-2.645-6.797-9.921-6.608-14.024a7.503 7.503 0 0 0-7.151-7.84c-4.169-.168-7.65 3.011-7.84 7.151-.615 13.39 5.255 24.048 15.705 28.513 3.265 1.394 6.809 2.101 10.53 2.101 7.995 0 16.005-3.398 21.427-9.088a26.607 26.607 0 0 0 2.254-2.723c10.517 15.798 23.754 29.862 39.309 41.38a16.663 16.663 0 0 0-1.618 7.145v4.013c0 5.975 3.147 11.217 7.861 14.194-3.035 16.95-9.288 38.977-22.121 58.724h-66.686c-7.334 0-13.302 5.967-13.302 13.302v18.603c0 7.334 5.967 13.302 13.302 13.302h3.53v113.065h-3.53c-7.334 0-13.302 5.967-13.302 13.302v18.604c0 7.334 5.967 13.302 13.302 13.302h222.734c7.334 0 13.302-5.967 13.302-13.302v-18.604c0-7.334-5.967-13.302-13.302-13.302h-3.53V353.728h3.53c7.334 0 13.302-5.967 13.302-13.302v-18.603c0-7.334-5.967-13.302-13.302-13.302h-66.204c-12.883-19.825-19.134-41.948-22.157-58.929 4.529-3.011 7.523-8.155 7.523-13.989v-4.013c0-2.557-.592-4.974-1.619-7.146 15.53-11.5 28.749-25.538 39.257-41.305a26.551 26.551 0 0 0 2.196 2.646c5.423 5.691 13.433 9.089 21.428 9.089 3.721 0 7.265-.707 10.531-2.102 10.449-4.464 16.319-15.123 15.704-28.512-.19-4.139-3.702-7.315-7.84-7.151a7.505 7.505 0 0 0-7.151 7.84c.189 4.102-.419 11.379-6.607 14.023-1.392.595-2.952.896-4.637.896-3.968 0-7.918-1.658-10.565-4.435-3.239-3.399-3.813-7.763-1.617-12.289 5.954-12.266 18.22-17.248 31.208-22.522 11.179-4.539 23.847-9.684 33.296-20.219 10.725-11.956 15.938-29.281 15.938-52.964V35.313a13.035 13.035 0 0 0-3.855-9.296zM150.83 126.719c-10.612-4.309-20.636-8.38-27.771-16.335-8.144-9.079-12.103-23.126-12.103-42.944V37.287a19.349 19.349 0 0 1 13.996 8.267l4.321 6.267a31.676 31.676 0 0 0 26.082 13.697h4.518V90.83c0 14.416 1.91 28.635 5.538 42.33-4.833-2.479-9.812-4.504-14.581-6.441zM365.664 481.8v15.194H146.34V481.8h219.324zm0-158.271v15.193h-50.062a7.503 7.503 0 1 0 0 15.006h33.231v113.065H163.171V353.728H280.69a7.503 7.503 0 1 0 0-15.006H146.34v-15.193H365.664zm-82.028-15.007h-54.785c10.874-19.491 16.484-39.974 19.377-56.126h16.031c2.893 16.155 8.504 36.637 19.377 56.126zm-43.048-72.917v-4.013c0-.687.393-1.277.963-1.576.045-.022.088-.048.133-.071.212-.089.446-.139.69-.139h27.364c.245 0 .479.05.692.14.044.022.086.048.13.07.571.299.965.89.965 1.577v4.013c0 .985-.801 1.786-1.787 1.786h-27.35c-.068-.005-.136-.016-.203-.019a1.785 1.785 0 0 1-1.597-1.768zM223.05 39.374h114.182V90.83c0 47.865-23.006 93.39-61.543 121.78l-3.285 2.421c-.87-.14-1.756-.233-2.665-.233h-27.364c-.909 0-1.795.093-2.666.233l-3.286-2.421c-38.535-28.39-61.542-73.915-61.542-121.78V39.374h13.001a7.503 7.503 0 1 0 0-15.006h-24.54v-9.361h185.429v9.361H223.05a7.503 7.503 0 1 0 0 15.006zm165.894 71.01c-7.135 7.956-17.159 12.026-27.773 16.336-4.727 1.919-9.66 3.926-14.456 6.376 3.617-13.675 5.522-27.873 5.522-42.266V65.519h4.409c10.419 0 20.17-5.12 26.082-13.697l4.321-6.266a19.351 19.351 0 0 1 13.996-8.265V67.44h.002c0 19.818-3.959 33.865-12.103 42.944z"/>
</symbol></svg>